<svg width="120" height="40" viewBox="0 0 120 40" fill="none" xmlns="http://www.w3.org/2000/svg">
<g clip-path="url(#clip0_1749_10939)">
<path d="M110.471 -0.000114141H9.87062C9.50392 -0.000114141 9.14162 -0.000114141 8.77589 0.00188586C8.46974 0.00388586 8.16603 0.00969586 7.85694 0.0145859C7.18545 0.0224877 6.51554 0.0815621 5.85304 0.191296C5.19146 0.303418 4.55061 0.514802 3.95216 0.818296C3.35444 1.12436 2.80828 1.52205 2.33351 1.99696C1.85624 2.47052 1.4584 3.0179 1.15529 3.61805C0.851338 4.21699 0.640578 4.85882 0.530288 5.52137C0.418948 6.18307 0.359036 6.85241 0.351088 7.52337C0.341808 7.82997 0.340827 8.13759 0.335938 8.44423V31.5585C0.340827 31.869 0.341808 32.1698 0.351088 32.4804C0.359038 33.1513 0.418951 33.8206 0.530288 34.4823C0.640273 35.1452 0.851046 35.7874 1.15529 36.3866C1.45826 36.9848 1.85616 37.53 2.33351 38.0009C2.80648 38.4779 3.35299 38.8759 3.95216 39.1796C4.55061 39.4839 5.19139 39.6965 5.85304 39.8104C6.51566 39.9192 7.18549 39.9783 7.85694 39.9872C8.16603 39.994 8.46974 39.9979 8.77589 39.9979C9.14161 39.9999 9.50394 39.9999 9.87062 39.9999H110.471C110.83 39.9999 111.195 39.9999 111.555 39.9979C111.859 39.9979 112.172 39.994 112.477 39.9872C113.147 39.9788 113.815 39.9197 114.477 39.8104C115.14 39.6957 115.783 39.4831 116.385 39.1796C116.983 38.8757 117.529 38.4777 118.002 38.0009C118.478 37.5281 118.877 36.9833 119.184 36.3866C119.486 35.787 119.694 35.1448 119.803 34.4823C119.914 33.8205 119.976 33.1514 119.988 32.4804C119.992 32.1698 119.992 31.869 119.992 31.5585C120 31.1952 120 30.8339 120 30.4647V9.53602C120 9.16981 120 8.80653 119.992 8.44423C119.992 8.13759 119.992 7.82997 119.988 7.52333C119.976 6.85231 119.914 6.18312 119.803 5.52133C119.694 4.85917 119.485 4.21739 119.184 3.61801C118.566 2.41508 117.588 1.43591 116.385 0.818206C115.783 0.515453 115.14 0.304126 114.477 0.191206C113.815 0.0809886 113.147 0.0218936 112.477 0.0144459C112.172 0.00956586 111.859 0.00370586 111.555 0.00175586C111.195 -0.000244141 110.83 -0.000244141 110.471 -0.000244141V-0.000114141Z" fill="#A6A6A6"/>
<path d="M8.7808 39.125C8.47612 39.125 8.1788 39.1211 7.87651 39.1143C7.2503 39.1061 6.62554 39.0516 6.00737 38.9512C5.43096 38.8519 4.87258 38.6673 4.35063 38.4033C3.83348 38.1415 3.36179 37.7983 2.95363 37.3867C2.53957 36.98 2.19485 36.5082 1.93312 35.9902C1.66851 35.4688 1.48539 34.9099 1.39012 34.333C1.28725 33.7131 1.23159 33.0863 1.22362 32.458C1.21728 32.2471 1.20898 31.5449 1.20898 31.5449V8.44434C1.20898 8.44434 1.21782 7.75293 1.22367 7.5498C1.2313 6.92248 1.28664 6.29665 1.3892 5.67773C1.48464 5.09925 1.66791 4.53875 1.93266 4.01563C2.19343 3.49794 2.53624 3.02586 2.9478 2.61768C3.35891 2.20562 3.83211 1.8606 4.35014 1.59521C4.87089 1.33209 5.42822 1.14873 6.00346 1.05127C6.62366 0.949836 7.25059 0.894996 7.87897 0.88721L8.78129 0.875H111.55L112.463 0.8877C113.086 0.895099 113.707 0.94945 114.321 1.05029C114.902 1.14898 115.466 1.33362 115.992 1.59814C117.03 2.13299 117.875 2.97916 118.407 4.01807C118.668 4.53758 118.848 5.09351 118.942 5.66699C119.046 6.29099 119.104 6.92174 119.116 7.5542C119.119 7.8374 119.119 8.1416 119.119 8.44434C119.127 8.81934 119.127 9.17627 119.127 9.53613V30.4648C119.127 30.8281 119.127 31.1826 119.119 31.54C119.119 31.8652 119.119 32.1631 119.115 32.4697C119.104 33.0909 119.046 33.7104 118.944 34.3232C118.851 34.9043 118.669 35.4675 118.404 35.9932C118.141 36.5056 117.798 36.9733 117.389 37.3789C116.98 37.7927 116.508 38.1379 115.989 38.4014C115.464 38.6674 114.902 38.8527 114.321 38.9512C113.703 39.0522 113.078 39.1067 112.452 39.1143C112.159 39.1211 111.853 39.125 111.555 39.125L110.471 39.127L8.7808 39.125Z" fill="black"/>
<path d="M42.6382 27.1397H37.9048L36.7681 30.4961H34.7632L39.2466 18.0781H41.3296L45.813 30.4961H43.7739L42.6382 27.1397ZM38.395 25.5908H42.147L40.2974 20.1436H40.2456L38.395 25.5908Z" fill="white"/>
<path d="M55.4956 25.9698C55.4956 28.7833 53.9898 30.5909 51.7173 30.5909C51.1417 30.621 50.5692 30.4884 50.0654 30.2083C49.5616 29.9281 49.1469 29.5118 48.8687 29.0069H48.8257V33.4913H46.9673V21.4425H48.7661V22.9483H48.8003C49.0913 22.4459 49.513 22.0317 50.0206 21.7498C50.5283 21.468 51.1028 21.329 51.6831 21.3477C53.9809 21.3477 55.4956 23.1641 55.4956 25.9698ZM53.5855 25.9698C53.5855 24.1368 52.6382 22.9317 51.1929 22.9317C49.773 22.9317 48.8179 24.1622 48.8179 25.9698C48.8179 27.794 49.773 29.0157 51.1929 29.0157C52.6382 29.0157 53.5855 27.8194 53.5855 25.9698Z" fill="white"/>
<path d="M65.4605 25.9698C65.4605 28.7833 63.9546 30.5909 61.6822 30.5909C61.1065 30.621 60.534 30.4884 60.0302 30.2083C59.5264 29.9281 59.1117 29.5118 58.8335 29.0069H58.7905V33.4913H56.9321V21.4425H58.7309V22.9483H58.7651C59.0561 22.4459 59.4778 22.0317 59.9854 21.7498C60.4931 21.468 61.0676 21.329 61.6479 21.3477C63.9458 21.3477 65.4605 23.1641 65.4605 25.9698ZM63.5503 25.9698C63.5503 24.1368 62.603 22.9317 61.1577 22.9317C59.7378 22.9317 58.7827 24.1622 58.7827 25.9698C58.7827 27.794 59.7378 29.0157 61.1577 29.0157C62.6031 29.0157 63.5503 27.8194 63.5503 25.9698H63.5503Z" fill="white"/>
<path d="M72.0464 27.0362C72.1841 28.2676 73.3804 29.0762 75.0152 29.0762C76.5816 29.0762 77.7085 28.2676 77.7085 27.1572C77.7085 26.1934 77.0288 25.6162 75.4195 25.2207L73.8101 24.833C71.5298 24.2822 70.4712 23.2158 70.4712 21.4854C70.4712 19.3428 72.3384 17.8711 74.9898 17.8711C77.6138 17.8711 79.4126 19.3428 79.4732 21.4854H77.5972C77.4849 20.2461 76.4605 19.4981 74.9634 19.4981C73.4663 19.4981 72.4419 20.2549 72.4419 21.3565C72.4419 22.2344 73.0962 22.751 74.6968 23.1465L76.0649 23.4824C78.6128 24.0849 79.6714 25.1084 79.6714 26.9248C79.6714 29.248 77.8208 30.7031 74.8774 30.7031C72.1235 30.7031 70.2642 29.2822 70.144 27.0361L72.0464 27.0362Z" fill="white"/>
<path d="M83.6821 19.2998V21.4424H85.4038V22.9141H83.6821V27.9053C83.6821 28.6807 84.0269 29.042 84.7837 29.042C84.9881 29.0384 85.1921 29.0241 85.395 28.999V30.4619C85.0547 30.5255 84.7089 30.5543 84.3628 30.5478C82.5298 30.5478 81.8149 29.8593 81.8149 28.1035V22.9141H80.4985V21.4424H81.8149V19.2998H83.6821Z" fill="white"/>
<path d="M86.4009 25.9697C86.4009 23.1211 88.0786 21.3311 90.6948 21.3311C93.3198 21.3311 94.9897 23.1211 94.9897 25.9697C94.9897 28.8262 93.3286 30.6084 90.6948 30.6084C88.062 30.6084 86.4009 28.8262 86.4009 25.9697ZM93.0962 25.9697C93.0962 24.0156 92.2007 22.8623 90.6948 22.8623C89.189 22.8623 88.2944 24.0244 88.2944 25.9697C88.2944 27.9316 89.189 29.0762 90.6948 29.0762C92.2007 29.0762 93.0961 27.9316 93.0961 25.9697H93.0962Z" fill="white"/>
<path d="M96.522 21.4424H98.2944V22.9834H98.3374C98.4574 22.5021 98.7393 22.0768 99.1359 21.7789C99.5325 21.481 100.02 21.3287 100.515 21.3476C100.729 21.3469 100.943 21.3702 101.152 21.417V23.1553C100.882 23.0726 100.599 23.0347 100.317 23.043C100.047 23.032 99.7778 23.0796 99.5279 23.1825C99.2781 23.2854 99.0535 23.4411 98.8695 23.639C98.6855 23.8369 98.5465 24.0723 98.4621 24.3289C98.3777 24.5856 98.3498 24.8575 98.3804 25.126V30.4961H96.522L96.522 21.4424Z" fill="white"/>
<path d="M109.72 27.8369C109.47 29.4805 107.87 30.6084 105.822 30.6084C103.188 30.6084 101.553 28.8437 101.553 26.0127C101.553 23.1729 103.197 21.3311 105.744 21.3311C108.249 21.3311 109.824 23.0518 109.824 25.7969V26.4336H103.429V26.5459C103.4 26.8791 103.441 27.2148 103.552 27.5306C103.662 27.8464 103.838 28.1352 104.068 28.3778C104.299 28.6203 104.578 28.8111 104.888 28.9374C105.197 29.0637 105.53 29.1226 105.865 29.1103C106.304 29.1515 106.745 29.0498 107.121 28.8203C107.498 28.5909 107.791 28.246 107.956 27.8369L109.72 27.8369ZM103.438 25.1348H107.964C107.981 24.8352 107.936 24.5354 107.831 24.2541C107.726 23.9729 107.565 23.7164 107.356 23.5006C107.148 23.2849 106.897 23.1145 106.619 23.0003C106.342 22.8861 106.044 22.8305 105.744 22.8369C105.441 22.8351 105.141 22.8933 104.861 23.008C104.581 23.1227 104.326 23.2918 104.112 23.5054C103.898 23.7191 103.728 23.973 103.612 24.2527C103.496 24.5323 103.437 24.8321 103.438 25.1348V25.1348Z" fill="white"/>
<path d="M38.1621 8.73089C38.5517 8.70293 38.9427 8.76179 39.3068 8.90323C39.6709 9.04466 39.9991 9.26514 40.2677 9.54876C40.5363 9.83239 40.7386 10.1721 40.86 10.5434C40.9814 10.9146 41.0188 11.3082 40.9697 11.6957C40.9697 13.602 39.9395 14.6977 38.1621 14.6977H36.0068V8.73089H38.1621ZM36.9336 13.8539H38.0586C38.337 13.8705 38.6156 13.8249 38.8741 13.7203C39.1327 13.6157 39.3646 13.4547 39.5531 13.2491C39.7416 13.0436 39.8819 12.7986 39.9638 12.532C40.0456 12.2653 40.067 11.9838 40.0264 11.7079C40.0641 11.4331 40.0405 11.1533 39.9574 10.8886C39.8743 10.624 39.7336 10.381 39.5456 10.177C39.3575 9.9731 39.1267 9.81329 38.8696 9.70905C38.6125 9.60481 38.3356 9.55873 38.0586 9.5741H36.9336V13.8539Z" fill="white"/>
<path d="M42.0166 12.4444C41.9883 12.1485 42.0222 11.8499 42.116 11.5679C42.2099 11.2858 42.3616 11.0264 42.5616 10.8065C42.7615 10.5865 43.0052 10.4107 43.2771 10.2904C43.5489 10.1702 43.8429 10.108 44.1402 10.108C44.4374 10.108 44.7314 10.1702 45.0033 10.2904C45.2751 10.4107 45.5188 10.5865 45.7188 10.8065C45.9187 11.0264 46.0705 11.2858 46.1643 11.5679C46.2582 11.8499 46.292 12.1485 46.2637 12.4444C46.2926 12.7406 46.2591 13.0396 46.1655 13.3221C46.0719 13.6047 45.9203 13.8645 45.7203 14.0849C45.5203 14.3053 45.2764 14.4814 45.0043 14.602C44.7321 14.7225 44.4378 14.7848 44.1402 14.7848C43.8425 14.7848 43.5482 14.7225 43.2761 14.602C43.004 14.4814 42.7601 14.3053 42.5601 14.0849C42.3601 13.8645 42.2084 13.6047 42.1148 13.3221C42.0212 13.0396 41.9878 12.7406 42.0166 12.4444ZM45.3496 12.4444C45.3496 11.4683 44.9112 10.8975 44.1416 10.8975C43.3692 10.8975 42.9346 11.4683 42.9346 12.4444C42.9346 13.4283 43.3692 13.9947 44.1416 13.9947C44.9112 13.9947 45.3496 13.4244 45.3496 12.4444H45.3496Z" fill="white"/>
<path d="M51.9092 14.6978H50.9873L50.0566 11.3813H49.9863L49.0596 14.6978H48.1465L46.9053 10.1948H47.8066L48.6133 13.6308H48.6797L49.6055 10.1948H50.458L51.3838 13.6308H51.4541L52.2568 10.1948H53.1455L51.9092 14.6978Z" fill="white"/>
<path d="M54.1895 10.1949H55.0449V10.9102H55.1113C55.224 10.6533 55.414 10.4379 55.6549 10.2941C55.8957 10.1503 56.1755 10.0852 56.4551 10.1079C56.6742 10.0915 56.8942 10.1245 57.0988 10.2046C57.3034 10.2847 57.4873 10.4098 57.637 10.5707C57.7867 10.7315 57.8983 10.924 57.9635 11.1338C58.0287 11.3436 58.0458 11.5654 58.0137 11.7827V14.6977H57.125V12.0059C57.125 11.2823 56.8106 10.9224 56.1533 10.9224C56.0046 10.9155 55.8561 10.9408 55.718 10.9966C55.58 11.0525 55.4556 11.1375 55.3535 11.2459C55.2514 11.3543 55.1739 11.4834 55.1263 11.6246C55.0788 11.7657 55.0624 11.9154 55.0781 12.0635V14.6978H54.1895L54.1895 10.1949Z" fill="white"/>
<path d="M59.4297 8.43701H60.3184V14.6978H59.4297V8.43701Z" fill="white"/>
<path d="M61.5537 12.4444C61.5254 12.1484 61.5593 11.8499 61.6532 11.5678C61.747 11.2857 61.8988 11.0263 62.0988 10.8064C62.2987 10.5864 62.5425 10.4106 62.8143 10.2903C63.0862 10.17 63.3802 10.1079 63.6775 10.1079C63.9748 10.1079 64.2688 10.17 64.5407 10.2903C64.8125 10.4106 65.0563 10.5864 65.2562 10.8064C65.4562 11.0263 65.608 11.2857 65.7018 11.5678C65.7957 11.8499 65.8296 12.1484 65.8013 12.4444C65.8301 12.7406 65.7966 13.0396 65.703 13.3221C65.6094 13.6046 65.4577 13.8645 65.2577 14.0849C65.0577 14.3053 64.8137 14.4814 64.5416 14.6019C64.2695 14.7225 63.9751 14.7847 63.6775 14.7847C63.3799 14.7847 63.0855 14.7225 62.8134 14.6019C62.5413 14.4814 62.2974 14.3053 62.0973 14.0849C61.8973 13.8645 61.7456 13.6046 61.652 13.3221C61.5584 13.0396 61.5249 12.7406 61.5537 12.4444ZM64.8867 12.4444C64.8867 11.4683 64.4482 10.8975 63.6787 10.8975C62.9063 10.8975 62.4717 11.4683 62.4717 12.4444C62.4717 13.4283 62.9063 13.9947 63.6787 13.9947C64.4483 13.9947 64.8867 13.4244 64.8867 12.4444H64.8867Z" fill="white"/>
<path d="M66.7368 13.4243C66.7368 12.6138 67.3403 12.1465 68.4116 12.0801L69.6313 12.0098V11.6211C69.6313 11.1455 69.3169 10.877 68.7095 10.877C68.2134 10.877 67.8696 11.0591 67.771 11.3774H66.9106C67.0015 10.604 67.729 10.1079 68.7505 10.1079C69.8794 10.1079 70.5161 10.6699 70.5161 11.6211V14.6978H69.6606V14.0649H69.5903C69.4476 14.2919 69.2472 14.477 69.0096 14.6012C68.772 14.7254 68.5056 14.7843 68.2378 14.7719C68.0488 14.7916 67.8577 14.7714 67.6769 14.7127C67.4962 14.654 67.3297 14.5581 67.1883 14.4311C67.0469 14.3042 66.9337 14.149 66.8559 13.9756C66.7781 13.8021 66.7376 13.6144 66.7368 13.4243ZM69.6313 13.0395V12.6631L68.5317 12.7334C67.9116 12.7749 67.6304 12.9858 67.6304 13.3828C67.6304 13.7881 67.9819 14.0239 68.4654 14.0239C68.607 14.0382 68.7501 14.0239 68.8861 13.9819C69.0221 13.9398 69.1482 13.8707 69.257 13.7789C69.3658 13.6871 69.455 13.5743 69.5193 13.4473C69.5836 13.3202 69.6217 13.1816 69.6313 13.0395Z" fill="white"/>
<path d="M71.6841 12.4444C71.6841 11.0215 72.4155 10.1201 73.5532 10.1201C73.8346 10.1072 74.1139 10.1746 74.3585 10.3145C74.603 10.4544 74.8026 10.661 74.9341 10.9101H75.0005V8.43701H75.8892V14.6978H75.0376V13.9863H74.9673C74.8257 14.2338 74.6191 14.4378 74.3698 14.5763C74.1206 14.7148 73.8382 14.7825 73.5532 14.772C72.4077 14.772 71.6841 13.8706 71.6841 12.4444ZM72.6021 12.4444C72.6021 13.3994 73.0523 13.9741 73.8052 13.9741C74.5542 13.9741 75.0171 13.3911 75.0171 12.4483C75.0171 11.5098 74.5494 10.9185 73.8052 10.9185C73.0571 10.9185 72.6021 11.4971 72.6021 12.4444H72.6021Z" fill="white"/>
<path d="M79.566 12.4444C79.5376 12.1485 79.5715 11.8499 79.6653 11.5679C79.7592 11.2858 79.9109 11.0264 80.1109 10.8065C80.3108 10.5865 80.5545 10.4107 80.8264 10.2904C81.0982 10.1702 81.3922 10.108 81.6895 10.108C81.9868 10.108 82.2807 10.1702 82.5526 10.2904C82.8244 10.4107 83.0682 10.5865 83.2681 10.8065C83.468 11.0264 83.6198 11.2858 83.7136 11.5679C83.8075 11.8499 83.8413 12.1485 83.813 12.4444C83.8419 12.7406 83.8084 13.0396 83.7148 13.3221C83.6212 13.6047 83.4696 13.8645 83.2696 14.0849C83.0696 14.3053 82.8257 14.4814 82.5536 14.602C82.2814 14.7225 81.9871 14.7848 81.6895 14.7848C81.3919 14.7848 81.0975 14.7225 80.8254 14.602C80.5533 14.4814 80.3094 14.3053 80.1094 14.0849C79.9094 13.8645 79.7577 13.6047 79.6641 13.3221C79.5706 13.0396 79.5371 12.7406 79.566 12.4444ZM82.899 12.4444C82.899 11.4683 82.4605 10.8975 81.691 10.8975C80.9185 10.8975 80.484 11.4683 80.484 12.4444C80.484 13.4283 80.9185 13.9947 81.691 13.9947C82.4605 13.9947 82.899 13.4244 82.899 12.4444Z" fill="white"/>
<path d="M85.0054 10.1949H85.8608V10.9102H85.9273C86.0399 10.6533 86.2299 10.4379 86.4708 10.2941C86.7117 10.1503 86.9914 10.0852 87.271 10.1079C87.4901 10.0915 87.7101 10.1245 87.9147 10.2046C88.1193 10.2847 88.3033 10.4098 88.4529 10.5707C88.6026 10.7315 88.7142 10.924 88.7794 11.1338C88.8446 11.3436 88.8617 11.5654 88.8296 11.7827V14.6977H87.9409V12.0059C87.9409 11.2823 87.6265 10.9224 86.9692 10.9224C86.8205 10.9155 86.672 10.9408 86.5339 10.9966C86.3959 11.0525 86.2715 11.1375 86.1694 11.2459C86.0673 11.3543 85.9898 11.4834 85.9423 11.6246C85.8947 11.7657 85.8783 11.9154 85.894 12.0635V14.6978H85.0054V10.1949Z" fill="white"/>
<path d="M93.8511 9.07373V10.2153H94.8267V10.9639H93.8511V13.2793C93.8511 13.751 94.0454 13.9575 94.4878 13.9575C94.601 13.9572 94.7142 13.9503 94.8267 13.937V14.6772C94.6671 14.7058 94.5054 14.721 94.3433 14.7226C93.355 14.7226 92.9614 14.375 92.9614 13.5068V10.9638H92.2466V10.2153H92.9614V9.07373H93.8511Z" fill="white"/>
<path d="M96.0405 8.43701H96.9214V10.9185H96.9917C97.1098 10.6591 97.305 10.4425 97.5507 10.2982C97.7964 10.1539 98.0807 10.0888 98.3647 10.1118C98.5827 10.1 98.8005 10.1364 99.0028 10.2184C99.2051 10.3004 99.3868 10.4261 99.5349 10.5864C99.683 10.7468 99.7939 10.9378 99.8597 11.146C99.9255 11.3541 99.9445 11.5742 99.9155 11.7905V14.6978H99.0259V12.0098C99.0259 11.2905 98.6909 10.9263 98.063 10.9263C97.9103 10.9137 97.7567 10.9347 97.6129 10.9878C97.4691 11.0408 97.3387 11.1247 97.2307 11.2334C97.1227 11.3421 97.0397 11.4732 96.9877 11.6173C96.9356 11.7614 96.9157 11.9152 96.9292 12.0679V14.6977H96.0406L96.0405 8.43701Z" fill="white"/>
<path d="M105.097 13.4819C104.976 13.8934 104.715 14.2494 104.358 14.4876C104.001 14.7257 103.572 14.8309 103.146 14.7846C102.849 14.7924 102.555 14.7356 102.282 14.6181C102.01 14.5006 101.766 14.3251 101.568 14.104C101.37 13.8829 101.223 13.6213 101.136 13.3375C101.049 13.0537 101.025 12.7544 101.066 12.4604C101.026 12.1655 101.051 11.8656 101.137 11.5809C101.224 11.2962 101.37 11.0335 101.567 10.8104C101.764 10.5873 102.007 10.4092 102.278 10.2879C102.55 10.1667 102.845 10.1053 103.142 10.1079C104.395 10.1079 105.151 10.9639 105.151 12.3779V12.688H101.971V12.7378C101.957 12.903 101.978 13.0693 102.032 13.2261C102.086 13.3828 102.173 13.5265 102.286 13.648C102.398 13.7694 102.535 13.866 102.688 13.9314C102.84 13.9968 103.005 14.0296 103.17 14.0278C103.383 14.0533 103.598 14.015 103.789 13.9178C103.98 13.8206 104.137 13.6688 104.242 13.4819L105.097 13.4819ZM101.971 12.0307H104.246C104.257 11.8796 104.236 11.7278 104.185 11.5851C104.134 11.4423 104.054 11.3119 103.95 11.202C103.845 11.0922 103.719 11.0053 103.579 10.9472C103.439 10.889 103.289 10.8607 103.137 10.8642C102.984 10.8623 102.831 10.8911 102.689 10.9491C102.546 11.007 102.417 11.0929 102.308 11.2016C102.2 11.3103 102.114 11.4397 102.056 11.5821C101.998 11.7245 101.969 11.877 101.971 12.0307H101.971Z" fill="white"/>
<path d="M25.1049 20.3006C25.1157 19.4659 25.3374 18.6475 25.7494 17.9216C26.1614 17.1956 26.7504 16.5857 27.4615 16.1485C27.0098 15.5034 26.4138 14.9724 25.721 14.5979C25.0282 14.2233 24.2575 14.0155 23.4703 13.9908C21.7911 13.8146 20.1631 14.9957 19.3074 14.9957C18.4352 14.9957 17.1177 14.0083 15.6989 14.0375C14.7813 14.0672 13.8869 14.334 13.103 14.8121C12.3192 15.2901 11.6725 15.9631 11.226 16.7654C9.29201 20.1138 10.7346 25.0349 12.5872 27.7415C13.5141 29.0668 14.5974 30.5473 16.0148 30.4948C17.4019 30.4372 17.9199 29.6103 19.5942 29.6103C21.253 29.6103 21.739 30.4948 23.1852 30.4614C24.6736 30.4372 25.6114 29.1302 26.5058 27.7923C27.1717 26.8479 27.6842 25.8042 28.0242 24.6997C27.1595 24.334 26.4215 23.7218 25.9024 22.9395C25.3833 22.1572 25.1059 21.2394 25.1049 20.3006Z" fill="white"/>
<path d="M22.3733 12.2108C23.1848 11.2366 23.5846 9.98445 23.4878 8.72021C22.248 8.85044 21.1027 9.44299 20.2802 10.3798C19.8781 10.8375 19.5701 11.3699 19.3738 11.9467C19.1776 12.5235 19.0969 13.1333 19.1365 13.7412C19.7566 13.7476 20.3701 13.6132 20.9308 13.3481C21.4915 13.083 21.9847 12.6942 22.3733 12.2108Z" fill="white"/>
</g>
<defs>
<clipPath id="clip0_1749_10939">
<rect width="119.664" height="40" fill="white" transform="translate(0.335938)"/>
</clipPath>
</defs>
</svg>
