<svg width="34" height="34" viewBox="0 0 34 34" fill="none" xmlns="http://www.w3.org/2000/svg">
<rect x="0.551941" y="1" width="32" height="32" rx="16" stroke="white"/>
<path fill-rule="evenodd" clip-rule="evenodd" d="M16.552 9.00772C16.2871 9.00772 16.0233 9.00581 15.7615 9.00392C12.7847 8.98243 10.0675 8.96281 8.97507 11.7665C8.54129 12.8797 8.54645 14.2866 8.55353 16.2153C8.55446 16.4694 8.55543 16.7325 8.55543 17.0052C8.55543 17.2267 8.55467 17.4468 8.55391 17.6648C8.54764 19.4695 8.54187 21.1278 8.97507 22.243C10.0649 25.0481 12.8029 25.0281 15.7638 25.0065H15.7641H15.7644H15.7647C16.0252 25.0046 16.2873 25.0027 16.5502 25.0027C16.825 25.0027 17.1005 25.0052 17.3754 25.0077C20.2391 25.0337 23.0286 25.0591 24.1263 22.243C24.5603 21.1202 24.5551 19.7331 24.5479 17.8052V17.8052C24.5469 17.5483 24.5459 17.2819 24.5459 17.0052C24.5459 16.706 24.5475 16.417 24.549 16.1376C24.5634 13.4993 24.5732 11.719 23.2031 10.3497C21.8276 8.9742 20.0176 8.98642 17.4629 9.00367C17.1682 9.00566 16.8635 9.00772 16.5484 9.00772H16.552ZM17.121 10.4404L17.1211 10.4404C22.7801 10.3871 23.5084 10.3802 23.0602 20.2342C22.9054 23.6241 20.5474 23.5982 17.4991 23.5648H17.499H17.4989H17.4988C17.19 23.5614 16.8741 23.5579 16.5527 23.5579C10.1814 23.5579 9.99821 23.3756 9.99821 17.0016C9.99821 10.5536 10.5036 10.4526 15.8352 10.4471V10.4489C16.2898 10.4482 16.7179 10.4442 17.121 10.4404ZM19.8611 12.7357C19.8611 12.206 20.2907 11.7764 20.8204 11.7764C21.3501 11.7764 21.7797 12.206 21.7797 12.7357C21.7797 13.2655 21.3501 13.695 20.8204 13.695C20.2907 13.695 19.8611 13.2655 19.8611 12.7357ZM16.552 12.8981C14.2841 12.8981 12.4459 14.7373 12.4459 17.0052C12.4459 19.273 14.2841 21.1113 16.552 21.1113C18.8198 21.1113 20.6572 19.273 20.6572 17.0052C20.6572 14.7373 18.8198 12.8981 16.552 12.8981ZM16.552 14.3394C20.076 14.3394 20.0805 19.671 16.552 19.671C13.0288 19.671 13.0234 14.3394 16.552 14.3394Z" fill="white"/>
</svg>
