<svg width="34" height="34" viewBox="0 0 34 34" fill="none" xmlns="http://www.w3.org/2000/svg">
<rect x="0.751953" y="1" width="32" height="32" rx="16" stroke="white"/>
<path fill-rule="evenodd" clip-rule="evenodd" d="M12.8757 13.5429V22.981H9.73289V13.5429H12.8757ZM13.0759 10.6286C13.0823 11.0921 12.922 11.4794 12.595 11.7905C12.268 12.1016 11.8378 12.2571 11.3045 12.2571H11.2855C10.7648 12.2571 10.3458 12.1016 10.0283 11.7905C9.71085 11.4794 9.55212 11.0921 9.55212 10.6286C9.55212 10.1587 9.71561 9.76984 10.0426 9.4619C10.3696 9.15397 10.7966 9 11.3236 9C11.8505 9 12.2728 9.15397 12.5902 9.4619C12.9077 9.76984 13.0696 10.1587 13.0759 10.6286ZM17.7424 14.8841C17.8633 14.6934 17.9871 14.5257 18.1138 14.381C18.2472 14.2286 18.4265 14.0635 18.6519 13.8857C18.8773 13.708 19.1535 13.5699 19.4805 13.4714C19.8075 13.373 20.171 13.3238 20.571 13.3238C21.6567 13.3238 22.5297 13.6841 23.19 14.4048C23.8503 15.1254 24.1805 16.181 24.1805 17.5714V22.981H21.0472V17.9334C21.0472 17.2667 20.9186 16.7445 20.6614 16.3667C20.4043 15.9889 20.0027 15.8 19.4567 15.8C19.0567 15.8 18.7218 15.9095 18.4519 16.1286C18.1821 16.3476 17.9805 16.6191 17.8472 16.9429C17.7773 17.1334 17.7424 17.3905 17.7424 17.7143V22.981H14.6091C14.6218 20.4476 14.6281 18.3937 14.6281 16.8191C14.6281 15.2445 14.6249 14.3048 14.6186 14L14.6091 13.5429H17.7424V14.8841Z" fill="white"/>
</svg>
