<svg width="82" height="33" viewBox="0 0 82 33" fill="none" xmlns="http://www.w3.org/2000/svg">
<g clip-path="url(#clip0_5140_14268)">
<path fill-rule="evenodd" clip-rule="evenodd" d="M28.4345 23.3655L33.5163 31.8682H39.2584L31.5352 19.9472L37.9377 12.4786L32.6262 12.019L31.162 13.484L25.8505 20.0621L25.7356 25.9795L28.4345 23.3655ZM9.97341 16.2129C6.09745 17.6492 6.01132 25.721 9.14079 27.7892C12.7871 30.2022 15.7443 26.87 16.0601 23.2219C16.2037 21.326 15.8304 18.5684 14.3375 17.1034C13.189 15.9831 11.4664 15.6959 9.97341 16.2129ZM20.8261 12.6223H24.702L24.7595 24.4858C24.8169 30.949 21.5439 33.3907 15.3423 31.1501C15.3423 31.1501 11.6673 32.6725 8.42302 31.4661C3.02539 29.4266 1.7334 20.8377 4.97773 16.0406C7.3033 12.6223 11.1793 11.9329 14.4236 13.1681C16.2898 13.9149 18.9025 15.6959 19.5915 20.2058C19.5915 20.2058 20.5677 24.1986 18.2708 28.4499C18.2708 28.4499 20.8261 29.1681 20.8261 25.8934C20.8261 22.6474 20.8261 12.6223 20.8261 12.6223Z" fill="url(#paint0_radial_5140_14268)"/>
<path fill-rule="evenodd" clip-rule="evenodd" d="M10.8342 5.2973C7.2454 6.36014 4.604 10.037 4.604 10.037C5.55146 11.6743 6.29794 13.6851 6.38407 15.9257C13.7915 9.08905 18.9881 9.23267 28.5201 11.6743C36.6165 13.7425 41.0093 12.2488 43.7655 9.2614C43.7655 9.2614 37.7076 12.4499 33.6593 10.7838C33.6593 10.7838 33.6019 10.7551 33.4584 10.6977C31.2189 10.9275 27.5152 8.71562 27.5152 8.71562C22.7205 6.07289 15.6002 3.91849 10.8342 5.2973Z" fill="#A1A1A1"/>
<path fill-rule="evenodd" clip-rule="evenodd" d="M4.60438 9.66331C4.60438 9.66331 7.24577 5.98647 10.8346 4.95235C15.6006 3.54481 22.7209 5.69921 27.5156 8.37067C27.5156 8.37067 31.2193 10.5825 33.4587 10.324C32.6548 10.008 29.7838 8.71537 26.9701 6.30244C23.6684 3.42991 17.2658 -0.476726 10.0594 0.729738C2.85302 1.9362 0.699707 4.86618 0.699707 4.86618C0.699707 4.86618 2.93915 6.67587 4.60438 9.66331Z" fill="url(#paint1_linear_5140_14268)"/>
<path fill-rule="evenodd" clip-rule="evenodd" d="M10.8342 4.95255C7.2454 5.98666 4.604 9.6635 4.604 9.6635C5.55146 11.3296 6.29794 13.3116 6.38407 15.5809C13.7915 8.71556 18.9881 8.85919 28.5201 11.3008C36.6165 13.3691 41.0093 11.9041 43.7655 8.91664C43.7655 8.91664 37.7076 12.0764 33.6593 10.4104C33.6593 10.4104 33.6019 10.3816 33.4584 10.3242C31.2189 10.5827 27.5152 8.37086 27.5152 8.37086C22.7205 5.6994 15.6002 3.545 10.8342 4.95255Z" fill="url(#paint2_linear_5140_14268)"/>
<path fill-rule="evenodd" clip-rule="evenodd" d="M42.5601 12.2485H43.2778V32.4712H42.5601V12.2485Z" fill="#810000"/>
<path d="M42.5604 12.2197H43.3356V32.4998H42.5317V12.2197H42.5604ZM43.2495 12.2772H42.5892V32.4136H43.2495V12.2772Z" fill="#810000"/>
<path d="M47.0103 30.7765V25.8645H47.8429V28.1051H47.8716L49.5942 25.8645H50.6565L48.7329 28.3061L50.8001 30.7765H49.7091L47.8716 28.5647H47.8429V30.7765H47.0103ZM51.9485 30.0297H54.2167V30.7765H51.1159V25.8645H54.1018V26.6114H51.9485V27.904H53.786V28.6509H51.9485V30.0297ZM56.6571 30.8627C56.4274 30.8627 56.2264 30.8627 56.0254 30.8053C55.8245 30.7478 55.6522 30.6616 55.5087 30.5754C55.3651 30.4893 55.2503 30.3744 55.1354 30.2307C55.0493 30.0871 54.9631 29.9435 54.9057 29.7711C54.8483 29.6275 54.7909 29.4839 54.7909 29.3115C54.7622 29.1392 54.7622 28.9668 54.7622 28.7658V25.8645H55.5948V28.6796C55.5948 29.0243 55.6235 29.3115 55.7096 29.4839C55.7958 29.7137 55.9106 29.8573 56.0829 29.9722C56.2551 30.0584 56.4561 30.1158 56.6858 30.1158C56.9155 30.1158 57.1165 30.0584 57.26 29.9722C57.4323 29.8573 57.5758 29.7137 57.662 29.4839C57.7194 29.3115 57.7768 29.0243 57.7768 28.6796V25.8645H58.6094V28.7658C58.6094 28.9668 58.6094 29.1392 58.5807 29.3115C58.552 29.4839 58.5233 29.6275 58.4659 29.7711C58.4084 29.9435 58.3223 30.0871 58.2075 30.2307C58.1213 30.3744 57.9778 30.4893 57.8342 30.5754C57.6907 30.6616 57.5184 30.7478 57.3174 30.8053C57.1165 30.8627 56.9155 30.8627 56.6571 30.8627ZM61.9686 29.5413H60.2459L59.7866 30.7765H58.8965L60.734 25.8645H61.4805L63.318 30.7765H62.428L61.9686 29.5413ZM61.1073 27.0422C60.935 27.5593 60.7914 27.9902 60.6766 28.3349L60.5043 28.7658H61.7102L61.5666 28.3349C61.4231 27.9902 61.2795 27.5593 61.1073 27.0422ZM66.0168 28.1625C66.3613 28.6509 66.6197 29.1105 66.8207 29.4839H66.8494C66.8207 28.8519 66.792 28.3923 66.792 28.1051V25.8645H67.6533V30.7765H66.7633L65.2703 28.5072C65.0119 28.1338 64.7248 27.6742 64.4377 27.1571C64.4664 27.7604 64.4664 28.22 64.4664 28.5647V30.7765H63.6338V25.8645H64.5238L66.0168 28.1625ZM71.2422 28.9094H70.2373V28.1338H72.1035V30.6329C72.0174 30.6616 71.9312 30.6903 71.8451 30.7191C71.7303 30.7478 71.6154 30.7765 71.4719 30.8053C71.357 30.8053 71.2135 30.834 71.0699 30.8627C70.9263 30.8627 70.7828 30.8627 70.668 30.8627C70.2373 30.8627 69.8928 30.8053 69.5769 30.6903C69.2611 30.5754 69.0027 30.4031 68.8018 30.202C68.6008 29.9722 68.4572 29.7137 68.3424 29.4264C68.2562 29.1105 68.1988 28.7945 68.1988 28.421C68.1988 28.1912 68.2275 27.9327 68.285 27.7029C68.3424 27.4731 68.3998 27.2433 68.5146 27.071C68.6295 26.8699 68.7443 26.6975 68.8879 26.5252C69.0601 26.3528 69.2037 26.2379 69.4047 26.123C69.6057 26.0081 69.8066 25.9219 70.0363 25.8645C70.266 25.807 70.4957 25.7783 70.7828 25.7783C71.0125 25.7783 71.2135 25.7783 71.4144 25.807C71.6441 25.8645 71.8164 25.8932 71.9312 25.9507V26.6975C71.759 26.6401 71.5867 26.6114 71.3857 26.5826C71.2135 26.5539 71.0412 26.5252 70.8402 26.5252C70.6105 26.5252 70.3521 26.5539 70.1512 26.6401C69.9215 26.7263 69.7492 26.8412 69.5769 27.0135C69.4334 27.1571 69.2898 27.3582 69.2037 27.588C69.1176 27.8178 69.0601 28.0763 69.0601 28.3636C69.0601 28.9381 69.2037 29.3977 69.4908 29.685C69.7779 29.9722 70.1799 30.1158 70.6967 30.1158C70.7828 30.1158 70.8976 30.1158 70.9838 30.0871C71.0986 30.0871 71.1847 30.0584 71.2422 30.0584V28.9094ZM75.4339 29.5413H73.6826L73.2519 30.7765H72.3332L74.1707 25.8645H74.9459L76.7546 30.7765H75.8646L75.4339 29.5413ZM74.5439 27.0422C74.3716 27.5593 74.2281 27.9902 74.1132 28.3349L73.941 28.7658H75.1468L75.0033 28.3349C74.8597 27.9902 74.7162 27.5593 74.5726 27.0422H74.5439ZM79.4535 28.1625C79.798 28.6509 80.0564 29.1105 80.2574 29.4839H80.2861C80.2574 28.8519 80.2574 28.3923 80.2574 28.1051V25.8645H81.09V30.7765H80.1999L78.707 28.5072C78.4486 28.1338 78.1615 27.6742 77.9031 27.1571H77.8744C77.9031 27.7604 77.9031 28.22 77.9031 28.5647V30.7765H77.0705V25.8645H77.9605L79.4535 28.1625Z" fill="white"/>
<path d="M47.9289 19.2576H48.7616V22.9057C48.7616 23.0493 48.7616 23.1929 48.7329 23.3078C48.7041 23.4227 48.6754 23.5376 48.618 23.6238C48.5606 23.7387 48.5032 23.8249 48.417 23.9111C48.3309 23.9972 48.2161 24.0547 48.1299 24.1121C48.0151 24.1696 47.9002 24.1983 47.7567 24.227C47.6418 24.2558 47.4983 24.2558 47.3834 24.2558C47.2399 24.2558 47.0963 24.2558 46.9528 24.227C46.8379 24.1983 46.7231 24.1696 46.637 24.1409V23.3653C46.7231 23.4227 46.8379 23.4515 46.9528 23.4802C47.0676 23.4802 47.1825 23.5089 47.2973 23.5089C47.527 23.5089 47.6706 23.4515 47.7567 23.3366C47.8715 23.2504 47.9289 23.078 47.9289 22.877V19.2576ZM52.1207 22.9344H50.3981L49.9387 24.1696H49.0487L50.8862 19.2576H51.6326L53.4701 24.1696H52.5801L52.1207 22.9344ZM51.2594 20.4353C51.0871 20.9524 50.9436 21.3832 50.8287 21.7279L50.6565 22.1588H51.8623L51.7188 21.7279C51.5752 21.3832 51.4317 20.9524 51.2594 20.4353ZM56.0254 22.7621C56.0254 22.6471 55.9967 22.5322 55.9393 22.4461C55.8818 22.3886 55.8244 22.3312 55.7096 22.2737C55.6234 22.2163 55.5086 22.1875 55.3938 22.1588C55.2789 22.1301 55.1354 22.1014 54.9918 22.0726C54.8195 22.0152 54.6473 21.9577 54.5037 21.9003C54.3315 21.8428 54.1879 21.7854 54.0731 21.6705C53.9295 21.5556 53.8434 21.4407 53.7572 21.2971C53.6998 21.1247 53.6711 20.9236 53.6711 20.6938C53.6711 20.4353 53.6998 20.2055 53.786 20.0044C53.8721 19.8321 53.9869 19.6597 54.1305 19.5448C54.274 19.4012 54.4463 19.315 54.6473 19.2576C54.8483 19.2001 55.0492 19.1714 55.3076 19.1714C55.566 19.1714 55.7957 19.1714 56.0541 19.2288C56.2838 19.2863 56.5135 19.3437 56.6857 19.4299V20.2055C56.4561 20.1193 56.2264 20.0331 55.9967 19.9757C55.767 19.947 55.566 19.9182 55.3938 19.9182C55.1066 19.9182 54.9057 19.9757 54.7334 20.0906C54.5899 20.1768 54.5037 20.3491 54.5037 20.5789C54.5037 20.6938 54.5324 20.8087 54.5899 20.8662C54.6473 20.9524 54.7047 21.0385 54.7908 21.0673C54.877 21.1247 54.9631 21.1822 55.0779 21.2109C55.1928 21.2396 55.3076 21.2683 55.4225 21.2971C55.6234 21.3258 55.7957 21.3832 55.9967 21.4407C56.1689 21.4981 56.3125 21.5843 56.4561 21.6992C56.5996 21.7854 56.7145 21.929 56.7719 22.1014C56.858 22.245 56.8867 22.4748 56.8867 22.7333C56.8867 22.9919 56.858 23.2217 56.7719 23.4227C56.6857 23.5951 56.5422 23.7674 56.3699 23.8823C56.1977 24.026 55.9967 24.1121 55.767 24.1696C55.5086 24.227 55.2502 24.2558 54.9631 24.2558C54.7334 24.2558 54.475 24.2558 54.2453 24.1983C53.9869 24.1409 53.786 24.0547 53.6424 23.9685V23.1929C53.8721 23.3078 54.0731 23.394 54.3027 23.4227C54.5037 23.4802 54.7334 23.5089 54.9631 23.5089C55.1066 23.5089 55.2215 23.5089 55.365 23.4802C55.4799 23.4515 55.5947 23.4227 55.7096 23.3653C55.7957 23.3078 55.8818 23.2217 55.9393 23.1355C55.9967 23.0206 56.0254 22.9057 56.0254 22.7621ZM60.131 22.9344H58.3797L57.949 24.1696H57.059L58.8678 19.2576H59.643L61.4517 24.1696H60.5904L60.131 22.9344ZM59.241 20.4353C59.0975 20.9524 58.9539 21.3832 58.8103 21.7279L58.6668 22.1588H59.8726L59.7004 21.7279C59.5855 21.3832 59.442 20.9524 59.2697 20.4353H59.241Z" fill="white"/>
<path d="M50.4269 15.1786C50.4269 14.8914 50.3695 14.6328 50.312 14.403C50.2546 14.1732 50.1398 14.0009 50.0249 13.8285C49.9101 13.6849 49.7665 13.57 49.5943 13.5126C49.422 13.4264 49.2497 13.3977 49.0488 13.3977C48.8478 13.3977 48.6755 13.4264 48.5033 13.5126C48.331 13.57 48.1874 13.6849 48.0726 13.8285C47.9578 14.0009 47.8429 14.1732 47.7855 14.403C47.6994 14.6328 47.6707 14.8914 47.6707 15.1786C47.6707 15.4946 47.6994 15.7531 47.7855 15.9829C47.8429 16.2127 47.9578 16.3851 48.0726 16.5287C48.1874 16.6723 48.331 16.7872 48.5033 16.8734C48.6755 16.9596 48.8478 16.9883 49.0488 16.9883C49.2497 16.9883 49.422 16.9596 49.5943 16.8734C49.7665 16.7872 49.9101 16.6723 50.0249 16.5287C50.1398 16.3851 50.2546 16.2127 50.312 15.9829C50.3695 15.7531 50.4269 15.4946 50.4269 15.1786ZM51.2882 15.1786C51.2882 15.5521 51.2308 15.8968 51.1447 16.2127C51.0298 16.5287 50.8863 16.816 50.6853 17.017C50.513 17.2468 50.2833 17.4192 49.9962 17.5628C49.7091 17.6777 49.3933 17.7352 49.0488 17.7352C48.7042 17.7352 48.3884 17.6777 48.1013 17.5628C47.8142 17.4192 47.5845 17.2468 47.3835 17.017C47.2113 16.816 47.0677 16.5287 46.9529 16.2127C46.8667 15.8968 46.8093 15.5521 46.8093 15.1786C46.8093 14.8052 46.8667 14.4605 46.9529 14.1445C47.0677 13.8573 47.2113 13.57 47.3835 13.3402C47.5845 13.1104 47.8142 12.938 48.1013 12.8231C48.3884 12.7082 48.7042 12.6221 49.0488 12.6221C49.3933 12.6221 49.7091 12.7082 49.9962 12.8231C50.2833 12.938 50.513 13.1104 50.6853 13.3402C50.8863 13.57 51.0298 13.8573 51.1447 14.1445C51.2308 14.4605 51.2882 14.8052 51.2882 15.1786ZM53.5564 17.649H52.695V13.4838H51.2308V12.737H55.0206V13.4838H53.5564V17.649ZM58.552 15.1786C58.552 14.8914 58.5233 14.6328 58.4659 14.403C58.3798 14.1732 58.2936 14.0009 58.1788 13.8285C58.064 13.6849 57.9204 13.57 57.7481 13.5126C57.5759 13.4264 57.4036 13.3977 57.2026 13.3977C57.0017 13.3977 56.8007 13.4264 56.6571 13.5126C56.4849 13.57 56.3413 13.6849 56.2265 13.8285C56.0829 14.0009 55.9968 14.1732 55.9394 14.403C55.8532 14.6328 55.8245 14.8914 55.8245 15.1786C55.8245 15.4946 55.8532 15.7531 55.9394 15.9829C55.9968 16.2127 56.0829 16.3851 56.2265 16.5287C56.3413 16.6723 56.4849 16.7872 56.6571 16.8734C56.8007 16.9596 57.0017 16.9883 57.2026 16.9883C57.4036 16.9883 57.5759 16.9596 57.7481 16.8734C57.9204 16.7872 58.064 16.6723 58.1788 16.5287C58.2936 16.3851 58.3798 16.2127 58.4659 15.9829C58.5233 15.7531 58.552 15.4946 58.552 15.1786ZM59.4421 15.1786C59.4421 15.5521 59.3847 15.8968 59.2985 16.2127C59.1837 16.5287 59.0401 16.816 58.8392 17.017C58.6669 17.2468 58.4372 17.4192 58.1501 17.5628C57.863 17.6777 57.5472 17.7352 57.2026 17.7352C56.8294 17.7352 56.5136 17.6777 56.2552 17.5628C55.9681 17.4192 55.7384 17.2468 55.5374 17.017C55.3651 16.816 55.1929 16.5287 55.1067 16.2127C55.0206 15.8968 54.9632 15.5521 54.9632 15.1786C54.9632 14.8052 55.0206 14.4605 55.1067 14.1445C55.1929 13.8573 55.3651 13.57 55.5374 13.3402C55.7384 13.1104 55.9681 12.938 56.2552 12.8231C56.5136 12.7082 56.8294 12.6221 57.2026 12.6221C57.5472 12.6221 57.863 12.7082 58.1501 12.8231C58.4372 12.938 58.6669 13.1104 58.8392 13.3402C59.0401 13.57 59.1837 13.8573 59.2985 14.1445C59.3847 14.4605 59.4421 14.8052 59.4421 15.1786ZM63.3755 14.202C63.3755 14.5467 63.2893 14.8339 63.1171 15.0924C62.9448 15.3223 62.6577 15.4946 62.2844 15.6095V15.6382L63.6626 17.649H62.6577L61.3944 15.7531H60.8202V17.649H59.9876V12.737H61.3657C61.6241 12.737 61.8251 12.737 62.0261 12.7657C62.227 12.7944 62.3993 12.8519 62.5428 12.9093C62.8012 13.0242 63.0022 13.1679 63.1458 13.3977C63.318 13.5987 63.3755 13.886 63.3755 14.202ZM61.2509 15.0063C61.4231 15.0063 61.5954 14.9775 61.7389 14.9775C61.8538 14.9488 61.9686 14.9201 62.0548 14.8914C62.227 14.8052 62.3419 14.719 62.428 14.6041C62.4854 14.4892 62.5141 14.3456 62.5141 14.202C62.5141 14.0583 62.4854 13.9434 62.428 13.8285C62.3993 13.7424 62.3132 13.6562 62.1696 13.5987C62.0835 13.57 61.9973 13.5413 61.8825 13.5126C61.7677 13.4838 61.5954 13.4838 61.4231 13.4838H60.8202V15.0063H61.2509ZM64.0645 17.649V12.737H64.8971V17.649H64.0645ZM67.5385 17.649H66.7059V13.4838H65.2129V12.737H69.0315V13.4838H67.5385V17.649ZM71.5867 16.4138H69.8354L69.4047 17.649H68.5147L70.3235 12.737H71.0987L72.9074 17.649H72.0174L71.5867 16.4138ZM70.6967 13.9147C70.5532 14.4318 70.4096 14.8626 70.2661 15.2073L70.1225 15.6382H71.2996L71.1561 15.2073C71.0412 14.8626 70.8977 14.4318 70.7254 13.9147H70.6967ZM75.4914 16.2415C75.4914 16.1266 75.4627 16.0117 75.4053 15.9255C75.3479 15.868 75.2617 15.7819 75.1756 15.7531C75.0608 15.6957 74.9459 15.667 74.8311 15.6382C74.7162 15.6095 74.6014 15.5521 74.4578 15.5233C74.2856 15.4946 74.1133 15.4372 73.941 15.3797C73.7688 15.3223 73.6252 15.2361 73.5104 15.1499C73.3955 15.035 73.2807 14.9201 73.2233 14.7477C73.1371 14.6041 73.1084 14.403 73.1084 14.1732C73.1084 13.9147 73.1658 13.6849 73.252 13.4838C73.3094 13.3115 73.4529 13.1391 73.5965 13.0242C73.7401 12.8806 73.9123 12.7944 74.0846 12.737C74.2856 12.6795 74.5152 12.6221 74.7449 12.6221C75.0033 12.6221 75.2617 12.6508 75.4914 12.7082C75.7498 12.7657 75.9508 12.8231 76.1231 12.9093V13.6849C75.8934 13.57 75.6637 13.5126 75.4627 13.4551C75.233 13.4264 75.032 13.3977 74.8311 13.3977C74.544 13.3977 74.343 13.4551 74.1994 13.57C74.0559 13.6562 73.9697 13.8285 73.9697 14.0583C73.9697 14.1732 73.9985 14.2594 74.0559 14.3456C74.0846 14.4318 74.1707 14.4892 74.2281 14.5467C74.3143 14.6041 74.4291 14.6616 74.544 14.6903C74.6301 14.719 74.7449 14.7477 74.8885 14.7765C75.0895 14.8052 75.2617 14.8626 75.434 14.9201C75.6063 14.9775 75.7785 15.0637 75.8934 15.1499C76.0369 15.2648 76.1518 15.4084 76.2379 15.5808C76.324 15.7244 76.3527 15.9542 76.3527 16.2127C76.3527 16.4713 76.2953 16.7011 76.2092 16.9021C76.1231 17.0745 75.9795 17.2468 75.8359 17.3617C75.6637 17.5054 75.4627 17.5915 75.2043 17.649C74.9746 17.7065 74.7162 17.7352 74.4291 17.7352C74.1707 17.7352 73.941 17.7065 73.6826 17.6777C73.4529 17.6203 73.252 17.5341 73.0797 17.4479V16.6723C73.3094 16.7872 73.5391 16.8734 73.7401 16.9021C73.9697 16.9596 74.1707 16.9883 74.4004 16.9883C74.544 16.9883 74.6875 16.9596 74.8024 16.9596C74.9459 16.9309 75.0608 16.8734 75.1469 16.816C75.2617 16.7585 75.3192 16.7011 75.4053 16.5862C75.4627 16.5 75.4914 16.3851 75.4914 16.2415Z" fill="white"/>
</g>
<defs>
<radialGradient id="paint0_radial_5140_14268" cx="0" cy="0" r="1" gradientUnits="userSpaceOnUse" gradientTransform="translate(18.0005 24.7954) scale(40.5376 40.5581)">
<stop stop-color="#CA0000"/>
<stop offset="0.278431" stop-color="#A50000"/>
<stop offset="1" stop-color="#810000"/>
</radialGradient>
<linearGradient id="paint1_linear_5140_14268" x1="6.6154" y1="13.7279" x2="27.549" y2="-2.85313" gradientUnits="userSpaceOnUse">
<stop stop-color="#CD131E"/>
<stop offset="0.419608" stop-color="#F79475"/>
<stop offset="0.760784" stop-color="#B41318"/>
<stop offset="0.988235" stop-color="#F99578"/>
<stop offset="1" stop-color="#FEFEFE"/>
</linearGradient>
<linearGradient id="paint2_linear_5140_14268" x1="15.2245" y1="20.3123" x2="33.1698" y2="-0.230909" gradientUnits="userSpaceOnUse">
<stop stop-color="#CACBCD"/>
<stop offset="0.0117647" stop-color="#CACBCD"/>
<stop offset="0.34902" stop-color="white"/>
<stop offset="0.639216" stop-color="#BFC0C4"/>
<stop offset="0.94902" stop-color="#FEFEFE"/>
<stop offset="1" stop-color="#FEFEFE"/>
</linearGradient>
<clipPath id="clip0_5140_14268">
<rect width="80.3902" height="32" fill="white" transform="translate(0.699707 0.5)"/>
</clipPath>
</defs>
</svg>
