<svg width="34" height="34" viewBox="0 0 34 34" fill="none" xmlns="http://www.w3.org/2000/svg">
<rect x="1.35193" y="1" width="32" height="32" rx="16" stroke="white"/>
<path fill-rule="evenodd" clip-rule="evenodd" d="M25.3521 12.9432C24.8986 13.6065 24.3504 14.1716 23.7074 14.6386C23.7141 14.7334 23.7175 14.8755 23.7175 15.065C23.7175 15.9449 23.5889 16.823 23.3317 17.6995C23.0746 18.576 22.6837 19.4169 22.1592 20.2224C21.6346 21.0278 21.0103 21.7401 20.2861 22.3594C19.5619 22.9787 18.6888 23.4728 17.6668 23.8416C16.6448 24.2105 15.5517 24.3949 14.3876 24.3949C12.5534 24.3949 10.8749 23.9043 9.35205 22.9229C9.58894 22.9499 9.8529 22.9635 10.1439 22.9635C11.6668 22.9635 13.0238 22.4965 14.215 21.5625C13.5043 21.5489 12.8681 21.3307 12.3064 20.9076C11.7446 20.4846 11.3588 19.9449 11.149 19.2883C11.3724 19.3222 11.5788 19.3391 11.7683 19.3391C12.0593 19.3391 12.347 19.3019 12.6312 19.2274C11.8732 19.0718 11.2455 18.6944 10.748 18.0955C10.2505 17.4965 10.0018 16.801 10.0018 16.0092V15.9686C10.462 16.2257 10.9561 16.3645 11.484 16.3848C11.0373 16.087 10.682 15.6978 10.418 15.2173C10.1541 14.7367 10.0221 14.2156 10.0221 13.6538C10.0221 13.0582 10.171 12.5066 10.4688 11.999C11.2878 13.0075 12.2844 13.8146 13.4587 14.4203C14.6329 15.0261 15.8901 15.3628 17.2302 15.4305C17.1761 15.1733 17.149 14.9229 17.149 14.6792C17.149 13.7723 17.4688 12.999 18.1084 12.3594C18.748 11.7198 19.5213 11.4 20.4282 11.4C21.3757 11.4 22.1744 11.7452 22.8241 12.4356C23.5619 12.2934 24.2556 12.0295 24.9053 11.6437C24.6549 12.422 24.1744 13.0244 23.4637 13.4508C24.0932 13.3831 24.7226 13.2139 25.3521 12.9432Z" fill="white"/>
</svg>
