<svg width="82" height="82" viewBox="0 0 82 82" fill="none" xmlns="http://www.w3.org/2000/svg">
<path d="M52.9038 38.3144H52.4445C50.1885 38.3144 47.9405 38.3144 45.6845 38.3144C45.5531 38.2951 45.4191 38.3234 45.3067 38.3943C45.1944 38.4652 45.1112 38.574 45.0722 38.7009C42.1394 45.486 39.2039 52.2711 36.2657 59.0562C36.2173 59.1689 36.1771 59.2736 36.1207 59.4266C36.3865 59.4266 36.6041 59.4266 36.8297 59.4669C36.986 59.4751 37.1392 59.5142 37.2803 59.5819C37.4214 59.6496 37.5477 59.7446 37.6518 59.8614C37.756 59.9783 37.8359 60.1145 37.8871 60.2624C37.9382 60.4103 37.9594 60.5668 37.9496 60.723C37.9576 60.8802 37.9327 61.0373 37.8766 61.1844C37.8205 61.3315 37.7344 61.4653 37.6238 61.5774C37.5132 61.6895 37.3804 61.7773 37.234 61.8354C37.0876 61.8934 36.9307 61.9204 36.7733 61.9147C35.2021 61.9147 33.6391 61.9147 32.0679 61.9147C31.9104 61.9207 31.7535 61.8935 31.6072 61.8348C31.461 61.7762 31.3288 61.6873 31.2193 61.5741C31.1098 61.4608 31.0254 61.3258 30.9717 61.1777C30.918 61.0297 30.8962 60.872 30.9077 60.7149C30.8956 60.5587 30.9154 60.4017 30.9657 60.2533C31.0161 60.1049 31.096 59.9683 31.2007 59.8516C31.3054 59.735 31.4326 59.6408 31.5747 59.5746C31.7169 59.5085 31.8709 59.4718 32.0276 59.4669C32.1023 59.4548 32.1785 59.4548 32.2532 59.4669C33.1314 59.6521 33.5101 59.2334 33.8646 58.4282C36.6524 51.8819 39.5047 45.3599 42.3247 38.8217C42.3811 38.7009 42.4214 38.5721 42.51 38.3385H41.9541C38.2075 38.3385 34.4689 38.3385 30.7223 38.3385C30.108 38.2855 29.4974 38.1968 28.8934 38.0728C28.7394 38.0555 28.5844 38.0957 28.4583 38.1856C27.862 38.6767 27.2739 39.1921 26.7018 39.7074C26.5206 39.8828 26.2907 39.9997 26.0421 40.0427C25.7935 40.0858 25.5377 40.0531 25.3079 39.9489C24.8832 39.7868 24.4432 39.6681 23.9946 39.5947C23.8901 39.5634 23.7801 39.5552 23.672 39.5704C23.564 39.5856 23.4606 39.624 23.3687 39.6828C23.2769 39.7417 23.1989 39.8197 23.1401 39.9115C23.0812 40.0033 23.0429 40.1067 23.0277 40.2147C22.9134 40.7763 22.8594 41.3486 22.8666 41.9217C22.8666 43.3549 22.8666 44.7801 22.9069 46.2134L22.9552 56.1092C22.9552 59.8936 22.9767 63.678 23.0197 67.4624C23.0197 71.6173 23.0492 75.7667 23.1083 79.9108C23.1083 81.0541 22.6813 81.4728 21.4969 81.4809H16.6465C15.6635 81.4809 15.2928 81.1427 15.1398 80.1604C14.4952 76.1237 13.8479 72.0977 13.198 68.0825C13.1779 67.9434 13.1314 67.8095 13.061 67.6879C12.9321 68.6944 12.8032 69.7009 12.6823 70.7074C12.2795 73.9282 11.8793 77.1704 11.4818 80.4341C11.4736 80.5982 11.4328 80.7589 11.3616 80.9069C11.2903 81.0549 11.1902 81.1872 11.0671 81.296C10.944 81.4047 10.8004 81.4878 10.6447 81.5403C10.4889 81.5928 10.3243 81.6137 10.1604 81.6017H5.1408C4.21422 81.6017 3.81943 81.1991 3.81943 80.257V56.5521C3.11846 56.5521 2.45776 56.5521 1.78901 56.5521C1.59456 56.5798 1.39632 56.5622 1.2098 56.5007C1.02328 56.4391 0.853523 56.3353 0.71385 56.1973C0.574176 56.0592 0.46838 55.8908 0.404698 55.7051C0.341015 55.5194 0.321196 55.3215 0.346792 55.1269C0.346792 49.0476 0.346792 42.9604 0.346792 36.8811C0.346792 34.5461 1.64399 33.0404 3.60994 32.0017C5.35173 31.1536 7.2565 30.6921 9.19356 30.6489L9.80591 30.6087C8.50365 30.046 7.3682 29.1579 6.50883 28.0297C5.64947 26.9016 5.09511 25.5714 4.89909 24.1671C4.66398 22.7854 4.79793 21.3661 5.28742 20.0527C5.77691 18.7393 6.6046 17.5782 7.68687 16.6869C9.33616 15.2648 11.4809 14.5515 13.6539 14.7023C15.827 14.8532 17.8524 15.8558 19.2892 17.4921C20.1358 18.4263 20.7511 19.5462 21.0855 20.7615C21.42 21.9768 21.4643 23.2537 21.2149 24.4892C21.0036 25.7082 20.5163 26.8629 19.7901 27.8649C19.064 28.8669 18.1182 29.6897 17.0251 30.2705C18.1934 30.2705 19.402 30.2705 20.6106 30.2705C21.8192 30.2705 22.923 30.2061 24.0752 30.1417C24.3101 30.1252 24.5359 30.0445 24.7278 29.9082C25.2676 29.4895 25.7672 29.0224 26.3392 28.6118C26.4655 28.5207 26.5665 28.399 26.6327 28.2581C26.699 28.1173 26.7283 27.9619 26.7179 27.8066C26.7179 23.99 26.7179 20.1734 26.7179 16.3567V3.75543C26.673 2.91066 26.9292 2.07733 27.4411 1.40357C27.953 0.729822 28.6874 0.259311 29.5138 0.0756888C29.8268 0.014961 30.1459 -0.00935982 30.4645 0.00321806C46.3962 0.00321806 62.328 0.00321806 78.2597 0.00321806C78.7525 -3.61581e-05 79.2411 0.0949785 79.6968 0.282695C80.1524 0.47041 80.566 0.747062 80.9134 1.09646C81.2608 1.44586 81.5349 1.86098 81.7198 2.31755C81.9047 2.77411 81.9966 3.26294 81.9902 3.75543C81.9902 14.078 81.9902 24.4006 81.9902 34.7313C82.022 35.2386 81.9455 35.747 81.7657 36.2225C81.5858 36.698 81.3068 37.1299 80.9471 37.4894C80.5874 37.8488 80.1552 38.1277 79.6794 38.3074C79.2036 38.4872 78.6949 38.5636 78.1872 38.5318H66.1659C66.2464 38.7331 66.2948 38.8861 66.3593 39.031C69.2813 45.7839 72.2061 52.5422 75.1335 59.3058C75.2544 59.5796 75.3914 59.7165 75.7056 59.6843C75.9737 59.6624 76.2432 59.6624 76.5113 59.6843C76.7992 59.7251 77.063 59.867 77.2558 60.0846C77.4486 60.3021 77.5576 60.581 77.5634 60.8715C77.5692 61.162 77.4714 61.4451 77.2875 61.6701C77.1036 61.8952 76.8456 62.0475 76.5597 62.0998C75.7539 62.0998 75.0046 62.0998 74.2311 62.0998C73.4576 62.0998 72.7083 62.0998 71.9429 62.0998C71.7712 62.1195 71.5974 62.1008 71.4338 62.0452C71.2703 61.9897 71.1211 61.8985 70.997 61.7784C70.873 61.6582 70.7771 61.5121 70.7163 61.3505C70.6556 61.1889 70.6315 61.0158 70.6457 60.8437C70.635 60.675 70.6616 60.5059 70.7237 60.3486C70.7857 60.1913 70.8817 60.0496 71.0047 59.9335C71.1278 59.8174 71.2749 59.7299 71.4357 59.6771C71.5964 59.6242 71.7668 59.6075 71.9348 59.6279H72.5874C72.5149 59.4508 72.4746 59.3139 72.4182 59.177C69.4962 52.4241 66.5741 45.6685 63.652 38.9102C63.6178 38.774 63.5352 38.6547 63.4196 38.5748C63.304 38.4948 63.1633 38.4595 63.0236 38.4754C60.6064 38.4754 58.1893 38.4754 55.8124 38.4754H55.329V55.0624H56.3925C56.5566 55.0469 56.722 55.0672 56.8775 55.1219C57.0329 55.1766 57.1745 55.2645 57.2926 55.3794C57.4106 55.4943 57.5023 55.6335 57.5611 55.7873C57.6199 55.9412 57.6446 56.1059 57.6333 56.2702C57.647 56.439 57.6236 56.6087 57.5646 56.7674C57.5056 56.9262 57.4126 57.0701 57.292 57.189C57.1715 57.308 57.0263 57.3991 56.8667 57.456C56.7071 57.5129 56.537 57.5341 56.3684 57.5183H52.3398C52.1118 57.5345 51.8829 57.5345 51.6549 57.5183C51.4994 57.4996 51.3492 57.4498 51.2133 57.372C51.0774 57.2941 50.9586 57.1897 50.8638 57.065C50.7691 56.9403 50.7005 56.7978 50.662 56.6461C50.6235 56.4943 50.6159 56.3364 50.6397 56.1817C50.6502 55.8819 50.779 55.5985 50.9979 55.3934C51.2168 55.1882 51.508 55.0779 51.808 55.0866C52.1867 55.0866 52.5573 55.0866 52.9682 55.0866L52.9038 38.3144ZM31.0205 35.9552H78.0502C78.2477 35.9571 78.4449 35.9382 78.6384 35.8988C78.8642 35.8551 79.07 35.7398 79.2253 35.5702C79.3805 35.4005 79.477 35.1854 79.5005 34.9567C79.5005 34.7715 79.5005 34.5944 79.5005 34.4092V3.61855C79.506 3.33962 79.4063 3.06883 79.2212 2.85999C79.0361 2.65114 78.7792 2.51952 78.5014 2.49127C78.3057 2.47521 78.109 2.47521 77.9133 2.49127H30.1745C29.3687 2.49127 28.9256 2.89387 28.9256 3.6588V25.8258C28.9256 25.9224 28.9256 26.0191 28.9739 26.156C30.9641 24.5456 32.9059 22.9352 34.8396 21.3248C34.9786 21.1648 35.152 21.0385 35.3469 20.9552C35.5418 20.8719 35.753 20.8339 35.9648 20.844C36.1765 20.854 36.3832 20.912 36.5693 21.0134C36.7554 21.1148 36.916 21.257 37.0392 21.4295C37.3373 21.7274 37.6274 22.0414 37.9335 22.3635L39.6497 20.8256L42.7678 18.0154C42.9405 17.8404 43.1603 17.7191 43.4005 17.6662C43.6407 17.6134 43.8911 17.6312 44.1214 17.7175C44.3273 17.7786 44.5098 17.9005 44.645 18.0672C44.7801 18.2339 44.8617 18.4376 44.8788 18.6515C44.9033 18.8864 44.8673 19.1236 44.7742 19.3406C44.6811 19.5576 44.5341 19.7473 44.347 19.8915L40.0364 23.7645L39.5369 24.2315C39.972 24.6422 40.3426 25.0367 40.7616 25.3991C40.9358 25.5163 41.0771 25.676 41.1722 25.8631C41.2672 26.0503 41.3129 26.2585 41.3048 26.4682C41.2968 26.6779 41.2352 26.8821 41.1261 27.0614C41.0169 27.2406 40.8637 27.3891 40.681 27.4926L33.2603 34.0066C32.5433 34.6024 31.8342 35.2385 31.0205 35.9552V35.9552ZM20.7556 79.0975C20.7556 78.3487 20.7556 77.6804 20.7556 77.0121C20.7556 72.2695 20.6912 67.5269 20.667 62.7843C20.667 58.3503 20.6455 53.911 20.6025 49.4663C20.6025 48.1297 20.6025 46.7931 20.6025 45.4404C20.6025 43.7656 20.5622 42.0908 20.6025 40.424C20.5699 39.645 20.8306 38.8821 21.3333 38.2858C21.836 37.6896 22.5441 37.3033 23.3178 37.2032C24.0103 37.1515 24.7067 37.1921 25.3885 37.324C25.5057 37.3588 25.6297 37.3638 25.7494 37.3385C25.869 37.3132 25.9803 37.2584 26.0734 37.1791L37.9899 27.1141L38.5056 26.6632L36.0401 24.0866L35.5808 24.4409C32.6883 26.784 29.7555 29.0788 26.9113 31.4944C25.9467 32.3526 24.6979 32.8231 23.4064 32.8149C18.5721 32.9115 13.6573 33.145 8.78266 33.3383C7.25394 33.3505 5.75363 33.7523 4.42372 34.5058C3.93143 34.7678 3.52382 35.1643 3.24849 35.649C2.97315 36.1338 2.84142 36.6868 2.86867 37.2435C2.86867 42.6866 2.86867 48.1297 2.86867 53.5728V54.0801H5.60813V45.5692C5.60813 45.2425 5.738 44.9291 5.96919 44.6981C6.20037 44.467 6.51393 44.3373 6.84088 44.3373C7.16782 44.3373 7.48136 44.467 7.71254 44.6981C7.94373 44.9291 8.07362 45.2425 8.07362 45.5692C8.07362 46.1892 8.07362 46.8092 8.07362 47.4372V55.2396C8.10095 55.4221 8.08576 55.6085 8.02924 55.7842C7.97273 55.9599 7.87641 56.1203 7.74778 56.2527C7.61914 56.3852 7.46167 56.4861 7.2876 56.5478C7.11353 56.6095 6.92756 56.6303 6.74417 56.6084H6.36551V79.0975C7.28402 79.0975 8.17836 79.0975 9.07271 79.0975C9.16939 79.0975 9.33053 78.9123 9.33858 78.7915C9.78173 75.4661 10.2007 72.1326 10.6277 68.8071C11.0548 65.4817 11.4738 62.1482 11.9008 58.8147C11.9222 58.4994 12.0587 58.203 12.2845 57.9818C12.5103 57.7605 12.8096 57.63 13.1255 57.6149C13.2858 57.6051 13.4464 57.6276 13.5979 57.681C13.7494 57.7344 13.8886 57.8176 14.0073 57.9257C14.126 58.0338 14.2217 58.1646 14.2889 58.3104C14.3562 58.4562 14.3934 58.614 14.3985 58.7744C14.9786 62.2609 15.5426 65.7554 16.1147 69.2419C16.6518 72.4305 17.1729 75.6217 17.6778 78.8157C17.6778 78.9204 17.847 79.0895 17.9356 79.0895C18.8219 79.0975 19.7565 79.0975 20.7556 79.0975ZM12.9724 28.9178C14.1233 28.9225 15.2497 28.5861 16.2092 27.9509C17.1686 27.3157 17.918 26.4104 18.3625 25.3495C18.807 24.2886 18.9266 23.1197 18.7061 21.9909C18.4857 20.862 17.9352 19.8239 17.1242 19.0078C16.3132 18.1917 15.2782 17.6344 14.1502 17.4063C13.0222 17.1782 11.8518 17.2896 10.7871 17.7264C9.72249 18.1632 8.81142 18.9058 8.1692 19.8603C7.52698 20.8147 7.18246 21.938 7.17926 23.0882C7.18545 24.6184 7.79263 26.085 8.87007 27.1722C9.94752 28.2595 11.4091 28.8806 12.9401 28.9017L12.9724 28.9178Z" fill="#1F9ED3"/>
<path d="M53.0327 27.7504H54.4024V14.0138C54.4024 12.8623 54.7811 12.4758 55.9252 12.4758C57.2788 12.4758 58.6217 12.4758 59.9538 12.4758C61.0093 12.4758 61.4041 12.8865 61.4122 13.9493V27.6376H62.7738V8.58674C62.7738 7.41116 63.1525 7.03271 64.3208 7.03271C65.6744 7.03271 67.0173 7.03271 68.3494 7.03271C69.3807 7.03271 69.7836 7.44336 69.7836 8.47401V27.6376H73.5946C72.95 27.1223 72.4022 26.6312 71.8059 26.1964C71.6648 26.0929 71.5456 25.9625 71.4552 25.8127C71.3649 25.6629 71.3053 25.4966 71.2798 25.3236C71.2543 25.1505 71.2635 24.9742 71.3068 24.8047C71.3501 24.6352 71.4266 24.476 71.532 24.3363C71.7588 24.0957 72.0701 23.9521 72.4005 23.9356C72.7309 23.9191 73.0548 24.031 73.3046 24.2478C74.916 25.528 76.5274 26.8325 78.0825 28.1369C78.4853 28.467 78.3887 28.9421 78.2195 29.3125C78.1056 29.5587 77.9376 29.7762 77.728 29.9486C76.2025 31.2154 74.6716 32.4661 73.1354 33.7008C72.9413 33.8879 72.6885 34.0021 72.4197 34.0241C72.151 34.0461 71.8829 33.9745 71.6609 33.8215C71.4341 33.6903 71.2596 33.4848 71.1671 33.2397C71.0746 32.9946 71.0697 32.7251 71.1533 32.4769C71.2616 32.196 71.4423 31.9488 71.677 31.7602C72.2249 31.2691 72.8131 30.8182 73.3529 30.2626H42.51C42.199 30.2307 41.9114 30.0825 41.7049 29.8478C41.4985 29.6131 41.3883 29.3092 41.3964 28.9968C41.4046 28.6844 41.5304 28.3866 41.7489 28.1629C41.9673 27.9393 42.2622 27.8063 42.5745 27.7906C43.7267 27.7906 44.8869 27.7906 46.0391 27.7906H46.3855V18.1927C46.3855 17.0493 46.7723 16.6709 47.9245 16.6709C49.0766 16.6709 50.39 16.6709 51.6227 16.6709C52.646 16.6709 53.0569 17.1057 53.0569 18.1283V27.7906L53.0327 27.7504ZM65.3118 9.51272V27.6376H67.3503V9.51272H65.3118ZM58.9547 27.7504V14.9639H56.9001V27.7504H58.9547ZM50.6478 27.6376V19.0382H48.9558V27.6376H50.6478Z" fill="#1F9ED3"/>
</svg>
