<svg width="75" height="75" viewBox="0 0 75 75" fill="none" xmlns="http://www.w3.org/2000/svg">
<path d="M55.6023 22.3441C54.0777 22.3439 52.5875 21.8907 51.3212 21.0419C50.055 20.1931 49.07 18.9872 48.4914 17.5774C47.9129 16.1677 47.7669 14.6179 48.0721 13.125C48.3772 11.6321 49.1198 10.2637 50.2053 9.1937C51.2907 8.1237 52.6701 7.40049 54.168 7.11602C55.6659 6.83155 57.2146 6.99869 58.6172 7.59617C60.0197 8.19365 61.2128 9.19449 62.0447 10.4714C62.8766 11.7483 63.3097 13.2436 63.2889 14.7672C63.2511 16.783 62.4258 18.704 60.9895 20.1198C59.5532 21.5356 57.6198 22.3339 55.6023 22.3441ZM55.6023 9.54953C54.5895 9.54795 53.599 9.84634 52.7557 10.407C51.9125 10.9677 51.2545 11.7655 50.8647 12.6997C50.4749 13.6339 50.3708 14.6626 50.5657 15.6558C50.7606 16.6491 51.2456 17.5623 51.9595 18.2803C52.6734 18.9982 53.5842 19.4887 54.5769 19.6896C55.5695 19.8906 56.5995 19.7931 57.5367 19.4095C58.474 19.0258 59.2764 18.3732 59.8428 17.534C60.4091 16.6949 60.7139 15.7069 60.7186 14.6947C60.7251 13.3372 60.1927 12.0324 59.2382 11.0665C58.2837 10.1005 56.9849 9.55212 55.6265 9.54148L55.6023 9.54953Z" fill="#1F9ED3"/>
<path d="M55.6025 38.9556C51.8019 38.9475 48.0892 37.8119 44.9351 35.6928C41.7811 33.5736 39.3276 30.5663 37.8858 27.052C36.444 23.5378 36.0787 19.6748 36.8363 15.9529C37.5939 12.2309 39.4402 8.81757 42.1412 6.14547C44.8422 3.47336 48.2763 1.66284 52.0081 0.94341C55.7399 0.22398 59.6015 0.628034 63.1033 2.10435C66.605 3.58068 69.5894 6.06278 71.6779 9.23605C73.7665 12.4093 74.8653 16.1308 74.835 19.9289C74.7924 24.9954 72.7464 29.8395 69.1433 33.4041C65.5401 36.9686 60.6725 38.9643 55.6025 38.9556V38.9556ZM66.7778 32.0471C68.6965 30.3127 70.1831 28.1543 71.1192 25.744C72.0552 23.3337 72.4148 20.7381 72.1692 18.1643C71.9236 15.5905 71.0796 13.1097 69.7045 10.9196C68.3295 8.72957 66.4614 6.89087 64.2493 5.55018C62.0371 4.20949 59.5421 3.40388 56.9632 3.1976C54.3843 2.99132 51.7929 3.39007 49.3955 4.36206C46.9981 5.33405 44.8612 6.85239 43.1551 8.79599C41.4489 10.7396 40.2208 13.0547 39.5687 15.5567C37.78 22.2881 40.5758 28.8263 44.4916 32.031C46.3931 26.8052 50.0269 23.7133 55.6669 23.7133C61.307 23.7133 64.8682 26.8455 66.7778 32.0471ZM54.4986 36.4273C57.8864 36.5628 61.2419 35.7244 64.1673 34.0117C64.2709 33.9671 64.354 33.8853 64.4002 33.7825C64.4464 33.6796 64.4525 33.5632 64.417 33.4562C64.1779 32.2198 63.6798 31.048 62.9555 30.0176C62.2312 28.9873 61.297 28.1216 60.2142 27.4776C59.1315 26.8335 57.9247 26.4256 56.673 26.2806C55.4213 26.1356 54.1532 26.2567 52.9517 26.6362C51.3972 27.0852 49.9986 27.9581 48.9127 29.1571C47.8268 30.356 47.0967 31.8335 46.804 33.424C46.7637 33.5363 46.768 33.6598 46.8159 33.7691C46.8639 33.8784 46.9519 33.9652 47.0619 34.0117C49.291 35.419 51.8358 36.2492 54.4664 36.4273H54.4986Z" fill="#1F9ED3"/>
<path d="M0.56389 55.5345C0.578219 51.7449 1.71558 48.0445 3.83243 44.9003C5.94928 41.7561 8.95073 39.3091 12.4579 37.868C15.9652 36.427 19.8209 36.0566 23.5386 36.8035C27.2563 37.5504 30.6693 39.3812 33.3468 42.0648C36.0242 44.7484 37.8462 48.1645 38.5827 51.8819C39.3192 55.5994 38.9372 59.4515 37.485 62.9522C36.0327 66.4529 33.5753 69.4453 30.4229 71.5515C27.2704 73.6577 23.5643 74.7835 19.7722 74.7867C17.2441 74.7899 14.7403 74.2937 12.4047 73.3267C10.0691 72.3596 7.94779 70.9407 6.16275 69.1516C4.37772 67.3625 2.96415 65.2384 2.0033 62.9015C1.04245 60.5646 0.55327 58.061 0.56389 55.5345ZM30.8992 67.9184C32.8123 66.1934 34.2984 64.0479 35.2402 61.6511C36.1821 59.2542 36.5541 56.6715 36.3268 54.1065C36.0995 51.5415 35.2791 49.0643 33.9304 46.8702C32.5817 44.676 30.7415 42.8249 28.5548 41.4628C26.3681 40.1006 23.8947 39.2647 21.3295 39.0207C18.7644 38.7768 16.1776 39.1316 13.7731 40.0572C11.3686 40.9828 9.21205 42.4539 7.47348 44.3545C5.7349 46.255 4.4618 48.5332 3.75453 51.0093C1.75635 57.9582 4.56025 64.6332 8.58884 67.9184C10.5387 62.5639 14.2853 59.4639 20.0542 59.5846C25.5492 59.6813 29.0621 62.7974 30.8992 67.9184ZM21.0452 72.2665C23.62 72.048 26.1057 71.2199 28.2967 69.8509C28.3482 69.8305 28.3952 69.8001 28.4348 69.7615C28.4745 69.7229 28.5061 69.6768 28.5279 69.6258C28.5496 69.5749 28.561 69.5202 28.5614 69.4648C28.5619 69.4095 28.5513 69.3546 28.5304 69.3034C28.1285 67.2644 27.0307 65.4282 25.4245 64.1083C23.8183 62.7885 21.8033 62.0669 19.7239 62.0669C17.6444 62.0669 15.6295 62.7885 14.0232 64.1083C12.417 65.4282 11.3192 67.2644 10.9174 69.3034C10.88 69.4103 10.885 69.5275 10.9315 69.6309C10.978 69.7342 11.0623 69.8158 11.1671 69.8589C13.818 71.4613 16.6702 72.2665 21.0452 72.2665Z" fill="#1F9ED3"/>
<path d="M10.3775 30.9034C11.0382 31.0322 11.6425 31.161 12.2549 31.2738C12.5176 31.2997 12.7657 31.4067 12.9649 31.5798C13.1641 31.7529 13.3045 31.9836 13.3667 32.24C13.431 32.5005 13.4102 32.7747 13.3072 33.0224C13.2043 33.2702 13.0247 33.4785 12.7947 33.6169C11.5297 34.4221 10.2647 35.3158 8.99169 36.1452C8.85311 36.2477 8.69441 36.3199 8.526 36.3569C8.35759 36.3939 8.18325 36.395 8.0144 36.36C7.84555 36.3251 7.68599 36.2549 7.54616 36.154C7.40633 36.0532 7.28939 35.9239 7.203 35.7748C6.35699 34.5106 5.51904 33.2304 4.69721 31.9501C4.55809 31.7369 4.48615 31.487 4.49068 31.2325C4.49521 30.978 4.57602 30.7308 4.72265 30.5227C4.86928 30.3146 5.07498 30.1552 5.31319 30.0652C5.5514 29.9752 5.81115 29.9586 6.05888 30.0177L7.79117 30.38C11.1671 18.6483 18.7328 11.1842 30.4802 7.79428C30.4157 7.35948 30.3593 6.86026 30.2707 6.36909C30.2074 6.1199 30.2248 5.85706 30.3203 5.61835C30.4159 5.37964 30.5847 5.17734 30.8025 5.04052C31.0169 4.88532 31.2749 4.80176 31.5397 4.80176C31.8045 4.80176 32.0625 4.88532 32.2769 5.04052C33.5097 5.91013 34.7424 6.77973 35.9671 7.66545C36.114 7.75659 36.2401 7.8776 36.3371 8.0206C36.4342 8.1636 36.5 8.32541 36.5304 8.4955C36.5608 8.6656 36.5551 8.84019 36.5135 9.00792C36.472 9.17565 36.3957 9.33277 36.2894 9.46909C35.3951 10.7574 34.4685 12.0216 33.5258 13.2777C33.3875 13.4855 33.1858 13.6433 32.9507 13.7274C32.7155 13.8116 32.4594 13.8176 32.2205 13.7447C31.9684 13.6908 31.7395 13.5593 31.5661 13.3686C31.3926 13.178 31.2834 12.9378 31.2537 12.6818C31.1248 11.933 31.0039 11.1761 30.875 10.379C25.608 11.678 20.8308 14.4748 17.1214 18.4309C13.8267 21.9318 11.5023 26.2307 10.3775 30.9034V30.9034Z" fill="#1F9ED3"/>
<path d="M44.9105 67.5964C44.983 68.0473 45.0475 68.5063 45.1281 68.9572C45.2022 69.2269 45.1865 69.5135 45.0833 69.7735C44.9801 70.0335 44.795 70.2529 44.556 70.3985C44.3245 70.542 44.0528 70.6071 43.7813 70.5838C43.5098 70.5606 43.2531 70.4504 43.0493 70.2697C41.8488 69.4081 40.6322 68.5465 39.4558 67.6689C39.3012 67.5762 39.1686 67.451 39.0673 67.302C38.966 67.1529 38.8985 66.9836 38.8693 66.8058C38.8402 66.628 38.8502 66.446 38.8986 66.2724C38.947 66.0989 39.0327 65.9379 39.1497 65.8008C40.0118 64.5608 40.89 63.3369 41.7682 62.113C41.9059 61.9047 42.1037 61.7431 42.3353 61.6496C42.567 61.5562 42.8216 61.5353 43.0654 61.5897C43.3053 61.626 43.5282 61.7351 43.704 61.9021C43.8798 62.0692 44 62.2861 44.0484 62.5237C44.2015 63.2162 44.3224 63.9167 44.4593 64.6172L44.5318 64.9071C52.589 63.192 62.169 56.0499 65.0132 44.5034C64.3686 44.3585 63.7079 44.2619 63.0795 44.0686C62.7378 43.9713 62.4342 43.7718 62.2093 43.4969C62.1138 43.3674 62.0462 43.2195 62.0106 43.0626C61.975 42.9057 61.9723 42.7432 62.0026 42.5851C62.0328 42.4271 62.0954 42.2771 62.1865 42.1444C62.2775 42.0117 62.395 41.8992 62.5316 41.8141C63.8207 40.9176 65.1206 40.0453 66.4313 39.1972C66.5677 39.1039 66.7214 39.0388 66.8833 39.0056C67.0453 38.9725 67.2122 38.9721 67.3743 39.0043C67.5365 39.0366 67.6905 39.1009 67.8274 39.1935C67.9643 39.286 68.0814 39.405 68.1716 39.5434C69.0337 40.8156 69.8797 42.1039 70.7096 43.3923C70.857 43.5946 70.9364 43.8385 70.9364 44.0888C70.9364 44.339 70.857 44.5829 70.7096 44.7852C70.5668 45.0071 70.3573 45.1781 70.1112 45.2736C69.8651 45.369 69.5951 45.3841 69.3399 45.3167C68.7598 45.1878 68.1797 45.0832 67.6157 44.9704C64.2236 56.7021 56.674 64.2146 44.9105 67.5964Z" fill="#1F9ED3"/>
<path d="M19.748 58.1756C18.2266 58.174 16.74 57.7207 15.4768 56.8733C14.2136 56.0259 13.2308 54.8226 12.6531 53.4161C12.0753 52.0096 11.9287 50.4632 12.2318 48.9733C12.5349 47.4834 13.2741 46.117 14.3555 45.0476C15.437 43.9782 16.8119 43.254 18.3059 42.9668C19.7999 42.6796 21.3456 42.8424 22.7469 43.4345C24.1482 44.0267 25.3418 45.0215 26.1764 46.2927C27.011 47.5639 27.4489 49.0542 27.4345 50.5746C27.3968 52.5926 26.5724 54.5162 25.1367 55.9359C23.7011 57.3556 21.7676 58.1592 19.748 58.1756V58.1756ZM19.748 45.373C18.7385 45.3762 17.7525 45.6778 16.9141 46.2398C16.0758 46.8018 15.4225 47.5991 15.0366 48.5313C14.6507 49.4635 14.5493 50.489 14.7453 51.4786C14.9413 52.4683 15.4258 53.3779 16.138 54.0929C16.8501 54.8079 17.758 55.2965 18.7474 55.497C19.7367 55.6975 20.7634 55.601 21.698 55.2197C22.6326 54.8384 23.4335 54.1893 23.9997 53.3542C24.566 52.519 24.8724 51.5351 24.8804 50.5263C24.8879 49.8502 24.7607 49.1793 24.5062 48.5528C24.2518 47.9264 23.8751 47.3567 23.3982 46.8771C22.9213 46.3975 22.3536 46.0176 21.7284 45.7593C21.1031 45.5011 20.4326 45.3698 19.756 45.373H19.748Z" fill="#1F9ED3"/>
</svg>
