<svg width="65" height="69" viewBox="0 0 65 69" fill="none" xmlns="http://www.w3.org/2000/svg">
<path d="M35.4793 4.28088H38.3235C39.4354 4.28088 39.7657 4.55465 39.9349 5.63361C40.1686 7.0427 40.4023 8.45179 40.6118 9.86893C40.6173 9.98175 40.6609 10.0894 40.7355 10.1742C40.8102 10.259 40.9114 10.316 41.0226 10.3359C42.6258 10.7688 44.1746 11.382 45.6394 12.1637C45.7282 12.2214 45.834 12.2472 45.9394 12.237C46.0448 12.2268 46.1435 12.1811 46.2195 12.1074C47.4442 11.2109 48.6743 10.3225 49.9097 9.44218C50.0433 9.30186 50.2063 9.19283 50.3871 9.12291C50.5678 9.05299 50.7618 9.02392 50.9551 9.03777C51.1484 9.05163 51.3363 9.10807 51.5052 9.20304C51.6741 9.29802 51.8199 9.42918 51.9321 9.58711L58.3053 15.9643C58.4556 16.0694 58.5811 16.2061 58.6729 16.3648C58.7647 16.5235 58.8206 16.7004 58.8368 16.883C58.8529 17.0657 58.8288 17.2496 58.7662 17.4219C58.7037 17.5943 58.6041 17.7508 58.4745 17.8806C57.6205 19.0643 56.7744 20.2479 55.9043 21.4235C55.8225 21.5179 55.7729 21.636 55.7627 21.7605C55.7526 21.885 55.7824 22.0095 55.8479 22.1159C56.5166 23.5975 57.1531 25.0952 57.7735 26.6009C57.8047 26.7144 57.8702 26.8155 57.9611 26.8905C58.0519 26.9654 58.1637 27.0105 58.2812 27.0196C59.8201 27.2531 61.359 27.5107 62.8979 27.7684C63.0658 27.7717 63.2312 27.8101 63.3833 27.8813C63.5354 27.9524 63.6709 28.0546 63.781 28.1814C63.8911 28.3081 63.9734 28.4565 64.0225 28.617C64.0716 28.7775 64.0865 28.9465 64.0662 29.1131C64.0662 32.205 64.0662 35.297 64.0662 38.3889C64.0829 38.5562 64.0649 38.725 64.0134 38.885C63.9619 39.045 63.8779 39.1927 63.7668 39.3189C63.6557 39.445 63.5198 39.5469 63.3675 39.6183C63.2152 39.6897 63.0499 39.7289 62.8818 39.7336C61.4154 39.9671 59.949 40.2087 58.4826 40.4341C58.3624 40.4394 58.2475 40.4853 58.1568 40.5643C58.066 40.6433 58.0048 40.7507 57.983 40.8689C57.5475 42.4536 56.9368 43.9848 56.1621 45.4344C56.1027 45.5235 56.0752 45.63 56.084 45.7367C56.0927 45.8434 56.1373 45.944 56.2104 46.0222C57.1209 47.2622 58.0233 48.5183 58.9257 49.7744C59.0542 49.9046 59.1533 50.0607 59.2163 50.2324C59.2793 50.4041 59.3048 50.5872 59.2911 50.7695C59.2774 50.9519 59.2247 51.1292 59.1366 51.2895C59.0486 51.4497 58.9272 51.5893 58.7807 51.6988C56.6321 53.846 54.4835 55.9771 52.3349 58.092C52.2274 58.2441 52.088 58.371 51.9264 58.4637C51.7648 58.5564 51.5849 58.6128 51.3993 58.6289C51.2137 58.645 51.0267 58.6204 50.8516 58.5569C50.6764 58.4934 50.5172 58.3925 50.3851 58.2611C49.1846 57.3996 47.968 56.5461 46.7997 55.6765C46.7202 55.6088 46.6214 55.5678 46.5174 55.5591C46.4133 55.5505 46.3091 55.5746 46.2195 55.6282C44.7209 56.2991 43.2142 56.9514 41.6995 57.5848C41.5783 57.614 41.4697 57.6815 41.3899 57.7772C41.3101 57.8729 41.2632 57.9918 41.2563 58.1162C41.0227 59.6622 40.7648 61.1921 40.507 62.73C40.5017 62.894 40.462 63.0551 40.3906 63.2029C40.3192 63.3507 40.2176 63.4819 40.0924 63.5881C39.9671 63.6943 39.821 63.7731 39.6635 63.8195C39.5059 63.8658 39.3404 63.8787 39.1776 63.8572C38.0737 63.8572 36.978 63.8572 35.8822 63.8572C35.4874 63.8572 35.3907 63.978 35.4068 64.3565C35.4068 65.0892 35.4068 65.83 35.4068 66.5627C35.4068 67.6658 34.9878 68.0845 33.892 68.0765C26.0349 68.1424 18.4235 65.3425 12.4841 60.2017C6.25617 55.021 2.07743 47.7936 0.696458 39.8141C-1.20504 29.258 1.59081 19.9178 8.50387 11.8256C13.5031 5.92751 20.4148 1.96953 28.0345 0.641398C30.0086 0.268853 32.012 0.0721537 34.021 0.0536089C34.2055 0.0280264 34.3933 0.044826 34.5703 0.102736C34.7473 0.160645 34.9088 0.25814 35.0424 0.387796C35.176 0.517452 35.2783 0.675856 35.3414 0.850959C35.4046 1.02606 35.427 1.21325 35.4068 1.39828C35.4068 2.20348 35.4068 3.00867 35.4068 3.81387C35.4551 3.92659 35.4632 4.07153 35.4793 4.28088ZM3.18615 39.8141C4.49056 46.8529 8.15283 53.2387 13.5708 57.9215C18.9887 62.6042 25.8398 65.3052 32.9977 65.5804V59.0341H32.4901C30.2099 59.0341 27.9217 59.0341 25.6415 59.0341C24.9343 59.0461 24.2373 58.864 23.6265 58.5076C23.0156 58.1513 22.5143 57.6344 22.1769 57.0131C21.8228 56.3796 21.65 55.6608 21.6774 54.9357C21.6774 53.9614 21.6774 52.971 21.629 51.9967C21.5984 51.6387 21.4319 51.3059 21.1638 51.0664C20.8957 50.827 20.5462 50.6989 20.1868 50.7084H19.1474C18.1536 50.7121 17.1984 50.3245 16.4886 49.6295C15.9202 49.0929 15.5251 48.3989 15.3541 47.6365C15.1831 46.874 15.2439 46.0779 15.5288 45.3502C15.8136 44.6226 16.3095 43.9965 16.9528 43.5524C17.5962 43.1083 18.3575 42.8664 19.1394 42.8578C20.7024 42.8578 22.2655 42.8578 23.8206 42.8578C25.0533 42.8578 25.5529 42.3827 25.6334 41.1588C25.6599 40.2537 26.0075 39.3875 26.6141 38.7148C27.2207 38.0422 28.0468 37.6071 28.9449 37.4871C30.1242 37.3944 31.3075 37.3621 32.4901 37.3905H33.0299V19.3702C33.0299 16.0367 33.0299 12.6952 33.0299 9.36166C33.0299 8.91075 32.901 8.80607 32.474 8.81413C31.4185 8.81413 30.363 8.81413 29.3075 8.81413C29.026 8.7774 28.7399 8.80385 28.4699 8.89156C28.2 8.97927 27.9529 9.12604 27.7469 9.32117C27.5408 9.5163 27.3809 9.7549 27.2787 10.0196C27.1765 10.2843 27.1347 10.5684 27.1563 10.8513C27.1341 11.6148 26.9001 12.3571 26.4804 12.9955C26.0607 13.6339 25.4718 14.1432 24.7794 14.4666C23.9983 14.8186 23.1459 14.984 22.2897 14.9497C21.247 14.9897 20.2254 14.6488 19.4158 13.9909C18.6062 13.333 18.064 12.403 17.8905 11.3746C17.8016 10.3681 17.7693 9.3573 17.7938 8.34711C17.7938 7.95257 17.7938 7.54192 17.7938 7.13932C15.0383 8.27464 8.34276 14.845 7.68207 17.0432C8.80202 17.0432 9.91388 17.0432 11.0258 17.0432C11.644 17.0106 12.262 17.1136 12.8362 17.3448C13.4105 17.576 13.9272 17.93 14.3502 18.3818C14.7732 18.8337 15.0921 19.3725 15.2847 19.9605C15.4773 20.5485 15.539 21.1715 15.4653 21.7858C15.427 22.0571 15.4502 22.3336 15.5332 22.5947C15.6162 22.8559 15.7569 23.0951 15.9449 23.2945C16.1329 23.494 16.3633 23.6487 16.6192 23.7471C16.8751 23.8455 17.1499 23.8852 17.4232 23.8632C17.9872 23.8632 18.5512 23.8632 19.1152 23.8632C19.982 23.8966 20.8139 24.2131 21.4834 24.7644C22.1529 25.3156 22.6229 26.0711 22.8215 26.9149C22.9764 27.8106 23.0385 28.7199 23.0068 29.6284C23.0284 30.2002 22.9314 30.7703 22.7218 31.3029C22.5122 31.8354 22.1946 32.3188 21.7889 32.7226C21.3833 33.1265 20.8984 33.4421 20.3647 33.6496C19.8311 33.857 19.2603 33.9519 18.6882 33.9282H13.1287C12.8676 33.8991 12.6032 33.9278 12.3545 34.0124C12.1057 34.0969 11.8787 34.2352 11.6895 34.4174C11.5002 34.5995 11.3535 34.8211 11.2597 35.0664C11.1658 35.3117 11.1273 35.5746 11.1466 35.8365C11.1138 36.7599 10.7721 37.6457 10.1762 38.3522C9.58024 39.0587 8.76447 39.5451 7.8593 39.7336C7.59358 39.7838 7.32399 39.8107 7.05359 39.8141C5.79666 39.8222 4.4753 39.8141 3.18615 39.8141V39.8141ZM35.4874 6.70451C35.4819 6.78763 35.4819 6.87101 35.4874 6.95413C35.4874 10.0139 35.4874 13.0817 35.4874 16.1414C35.4874 16.4393 35.6324 16.4715 35.8741 16.5198C37.1607 16.7049 38.4337 16.9739 39.6852 17.325C43.1629 18.4237 46.2107 20.58 48.4033 23.4929C50.5959 26.4058 51.8239 29.93 51.916 33.5739C52.0381 36.2769 51.5177 38.9705 50.3973 41.4337C49.2769 43.897 47.5884 46.0599 45.4702 47.7453C42.9726 49.8364 39.9222 51.1593 36.6879 51.5539C35.5196 51.7069 35.5196 51.6746 35.5116 52.8663C35.5116 55.5798 35.5116 58.2933 35.5116 61.0149C35.5116 61.4175 35.6405 61.5302 36.0272 61.5141C36.704 61.5141 37.3889 61.5141 38.0657 61.5141C38.3235 61.5141 38.4122 61.4256 38.4524 61.1759C38.67 59.7185 38.9197 58.2692 39.1373 56.8118C39.1554 56.5227 39.2676 56.2475 39.4566 56.028C39.6457 55.8085 39.9014 55.6568 40.1847 55.5959C42.1702 55.0633 44.0694 54.2499 45.8247 53.1804C46.087 52.9975 46.4027 52.907 46.7222 52.923C47.0416 52.9391 47.3466 53.0607 47.5893 53.2689C48.7092 54.0741 49.8453 54.8793 50.9571 55.6845C51.1747 55.8456 51.3036 55.8456 51.497 55.6443C53.1084 54.0339 54.7682 52.3752 56.4038 50.7406C56.4533 50.6846 56.4991 50.6255 56.5408 50.5635C55.6061 49.2832 54.6877 48.003 53.7611 46.7307C53.5819 46.539 53.4682 46.2953 53.4363 46.0349C53.4045 45.7745 53.4561 45.5106 53.5838 45.2814C54.668 43.3712 55.4814 41.3199 56.001 39.1861C56.0511 38.9504 56.1749 38.7368 56.3545 38.5762C56.5341 38.4155 56.7602 38.3161 57 38.2923L59.0546 37.9541L61.6813 37.5274C61.6864 37.4523 61.6864 37.377 61.6813 37.3019C61.6813 34.9883 61.6813 32.6774 61.6813 30.3692C61.6813 30.0874 61.5604 30.0069 61.3026 29.9746L56.8953 29.2741C56.6412 29.2564 56.3992 29.1588 56.2038 28.9954C56.0085 28.832 55.8698 28.6111 55.8076 28.3643C55.2264 26.2627 54.3559 24.252 53.2212 22.3897C53.0836 22.1925 53.0099 21.9578 53.0099 21.7174C53.0099 21.4769 53.0836 21.2423 53.2212 21.045C53.3582 20.8357 53.5032 20.6424 53.6483 20.4411L55.9607 17.2204L50.6429 11.89C49.4021 12.7837 48.121 13.7017 46.848 14.6357C46.6291 14.8287 46.3526 14.9443 46.0614 14.9647C45.7701 14.9851 45.4803 14.9091 45.2366 14.7484C44.693 14.4205 44.1276 14.13 43.5445 13.8788C42.1802 13.342 40.8078 12.8643 39.4273 12.4456C39.15 12.3895 38.8969 12.2486 38.7034 12.0422C38.5099 11.8358 38.3856 11.5744 38.3477 11.2941C38.2752 10.8432 38.2026 10.3843 38.1221 9.93335C37.9529 8.86244 37.7756 7.79958 37.6064 6.71257L35.4874 6.70451ZM35.4874 49.1705C37.8278 49.0282 40.1006 48.3301 42.117 47.1342C44.1335 45.9383 45.8354 44.279 47.0816 42.2941C50.3045 36.8993 50.3046 31.3757 47.1623 25.9809C44.6001 21.5765 40.4828 19.5393 35.4874 18.871V49.1705ZM2.70269 37.3985C4.24967 37.3985 5.65163 37.3985 7.04552 37.3985C7.48065 37.399 7.89927 37.232 8.21436 36.9321C8.52946 36.6322 8.71684 36.2225 8.73756 35.7882C8.75478 35.4427 8.79241 35.0985 8.85032 34.7575C9.0654 33.8162 9.60244 32.9795 10.3688 32.3915C11.1351 31.8036 12.0827 31.5012 13.0481 31.5367C14.9416 31.5367 16.835 31.5367 18.6882 31.5367C18.9387 31.5535 19.1898 31.5164 19.4248 31.4279C19.6597 31.3394 19.8729 31.2016 20.0501 31.0238C20.2272 30.8461 20.3642 30.6324 20.4517 30.3972C20.5392 30.1621 20.5753 29.9109 20.5574 29.6606C20.5574 29.1292 20.5574 28.5897 20.5574 28.0502C20.5631 27.8108 20.5197 27.5728 20.4299 27.3508C20.34 27.1288 20.2057 26.9275 20.0351 26.7593C19.8645 26.5911 19.6613 26.4596 19.438 26.3728C19.2147 26.286 18.976 26.2458 18.7365 26.2546H17.262C16.6603 26.2611 16.0641 26.1405 15.5122 25.901C14.9603 25.6615 14.4651 25.3083 14.0591 24.8645C13.653 24.4207 13.3452 23.8964 13.1557 23.3256C12.9663 22.7549 12.8994 22.1506 12.9595 21.5523C13.0007 21.2856 12.9818 21.013 12.9041 20.7545C12.8265 20.496 12.6919 20.2582 12.5105 20.0583C12.329 19.8584 12.1051 19.7016 11.8552 19.5993C11.6053 19.4969 11.3357 19.4517 11.066 19.4669C9.80912 19.4669 8.54415 19.5393 7.29529 19.4669C6.9381 19.4055 6.57084 19.4785 6.26434 19.6718C5.95784 19.8651 5.73383 20.165 5.63551 20.5136C3.90895 24.2028 2.90261 28.1872 2.67048 32.2533C2.57379 33.9604 2.67856 35.6513 2.69467 37.3985H2.70269ZM33.0219 39.8141C31.9341 39.8141 30.8948 39.8544 29.8554 39.8141C29.6184 39.7906 29.3791 39.8185 29.1539 39.896C28.9287 39.9736 28.723 40.0988 28.5508 40.2633C28.3786 40.4277 28.244 40.6274 28.1563 40.8487C28.0685 41.07 28.0297 41.3076 28.0425 41.5453C28.009 42.552 27.5834 43.5059 26.8565 44.2038C26.1296 44.9016 25.1589 45.2882 24.1509 45.2814C22.5395 45.2814 20.9281 45.2814 19.2522 45.2814C18.8504 45.2814 18.4652 45.4409 18.1811 45.7248C17.897 46.0087 17.7374 46.3937 17.7374 46.7952C17.7374 47.1966 17.897 47.5817 18.1811 47.8656C18.4652 48.1494 18.8504 48.3089 19.2522 48.3089H20.3399C21.281 48.3405 22.178 48.7149 22.8622 49.3615C23.5463 50.0081 23.9702 50.8823 24.0542 51.8196C24.1267 52.7939 24.1026 53.7762 24.1106 54.7585C24.1106 56.0952 24.6504 56.6346 25.9718 56.6346H33.0138L33.0219 39.8141ZM33.0219 2.48529C32.8904 2.47658 32.7585 2.47658 32.6271 2.48529C30.9592 2.7027 29.2672 2.84764 27.6155 3.16166C25.1617 3.63414 22.786 4.44721 20.5574 5.57725C20.475 5.61766 20.4022 5.67521 20.3438 5.74603C20.2854 5.81685 20.2429 5.89931 20.219 5.98789C20.219 7.59828 20.219 9.20867 20.219 10.8191C20.2388 11.2093 20.3907 11.5813 20.6498 11.8739C20.909 12.1665 21.2599 12.3624 21.6451 12.4294C22.1797 12.5042 22.722 12.5042 23.2566 12.4294C23.6564 12.3754 24.0256 12.1862 24.3027 11.8931C24.5798 11.6001 24.748 11.221 24.7794 10.8191C24.7948 10.4597 24.8352 10.1019 24.9003 9.74815C25.1119 8.78452 25.6536 7.92497 26.4317 7.31785C27.2099 6.71072 28.1757 6.39413 29.1625 6.4227C30.3308 6.4227 31.499 6.4227 32.6673 6.4227C32.9896 6.4227 33.1025 6.33413 33.0944 6.004C33.0944 5.28737 33.0944 4.5627 33.0944 3.83802L33.0219 2.48529Z" fill="#1F9ED3"/>
</svg>
