<svg width="80" height="81" viewBox="0 0 80 81" fill="none" xmlns="http://www.w3.org/2000/svg">
<path d="M46.8699 56.5521C47.5144 56.5521 48.159 56.5037 48.7875 56.5521C51.2016 56.76 53.4911 57.7141 55.338 59.2817C55.4242 59.3644 55.5303 59.4234 55.646 59.4531C55.7618 59.4827 55.8833 59.4819 55.9986 59.4508C56.6513 59.3219 57.312 59.2253 57.9727 59.1126C56.8149 57.8879 56.0414 56.3512 55.7478 54.6922C55.4542 53.0332 55.6533 51.3246 56.3204 49.7774C56.9876 48.2302 58.0938 46.9122 59.5021 45.9862C60.9104 45.0601 62.5593 44.5666 64.2451 44.5666C65.931 44.5666 67.5799 45.0601 68.9883 45.9862C70.3966 46.9122 71.5026 48.2302 72.1698 49.7774C72.837 51.3246 73.0362 53.0332 72.7425 54.6922C72.4489 56.3512 71.6754 57.8879 70.5177 59.1126C70.9528 59.177 71.3637 59.2172 71.7746 59.2897C73.8034 59.6315 75.6589 60.6428 77.045 62.1623C78.431 63.6817 79.2676 65.6215 79.4209 67.6718C79.4209 68.2274 79.4773 68.791 79.4853 69.3546V78.6708C79.4882 78.8899 79.4667 79.1086 79.4209 79.323C79.3375 79.6152 79.1574 79.8707 78.9101 80.0476C78.6629 80.2245 78.3629 80.3125 78.0592 80.2973C77.7414 80.2688 77.4445 80.127 77.2226 79.8979C77.0007 79.6688 76.8687 79.3675 76.8506 79.0492C76.8506 78.6144 76.8506 78.1715 76.8506 77.7287C76.8506 74.6931 76.8506 71.6575 76.8506 68.6219C76.8737 67.6993 76.7059 66.7819 76.358 65.9271C76.01 65.0722 75.4892 64.2984 74.8282 63.6539C74.2383 63.0633 73.5375 62.5949 72.766 62.2757C71.9944 61.9566 71.1674 61.7928 70.3324 61.7939C66.3924 61.7939 62.4444 61.7939 58.5044 61.7939C58.2466 61.7939 57.9968 61.7939 57.6987 61.8502C57.7507 61.9665 57.8099 62.0795 57.876 62.1884C59.0369 64.0684 59.6481 66.2356 59.6405 68.4448V78.8237C59.661 79.0094 59.6421 79.1973 59.5851 79.3752C59.5281 79.5531 59.4342 79.7169 59.3095 79.8561C59.1848 79.9952 59.0322 80.1066 58.8615 80.1828C58.6909 80.259 58.506 80.2984 58.3191 80.2984C58.1322 80.2984 57.9474 80.259 57.7768 80.1828C57.6061 80.1066 57.4535 79.9952 57.3288 79.8561C57.2041 79.7169 57.1101 79.5531 57.0531 79.3752C56.996 79.1973 56.9772 79.0094 56.9977 78.8237C56.9977 75.4097 56.9977 71.9876 56.9977 68.5656C57.0347 66.4882 56.3703 64.459 55.1117 62.8053C53.853 61.1516 52.0736 59.9699 50.0605 59.4508C49.2493 59.2468 48.4154 59.1466 47.5789 59.1528C42.382 59.1528 37.1932 59.1528 31.9963 59.1528C29.6974 59.1157 27.4666 59.9341 25.7378 61.449C24.009 62.9639 22.9055 65.0671 22.6419 67.3497C22.604 67.7054 22.5906 68.0632 22.6016 68.4206V78.7593C22.6247 78.9922 22.5914 79.2271 22.5045 79.4443C22.4175 79.6616 22.2795 79.8547 22.1021 80.0074C21.917 80.1607 21.6931 80.2599 21.4551 80.2941C21.2172 80.3283 20.9743 80.2961 20.7535 80.2012C20.5326 80.1062 20.3424 79.9522 20.2036 79.756C20.0648 79.5598 19.9829 79.3292 19.9669 79.0895C19.9669 78.4534 19.9669 77.8253 19.9669 77.1972C19.9669 74.1617 19.9669 71.1261 19.9669 68.0905C19.9948 66.0332 20.5855 64.0227 21.6751 62.277C21.7476 62.1643 21.804 62.0435 21.9007 61.8744C21.6026 61.8744 21.3528 61.81 21.095 61.81C17.155 61.81 13.2069 61.81 9.26698 61.81C7.53004 61.8353 5.87267 62.5416 4.6519 63.7766C3.43113 65.0117 2.74472 66.6766 2.74068 68.4126C2.74068 71.9152 2.74068 75.4178 2.74068 78.9204C2.77351 79.2494 2.6809 79.5786 2.48132 79.8423C2.28173 80.106 1.98992 80.2847 1.66419 80.3427C1.33847 80.4007 1.00284 80.3337 0.724418 80.1551C0.445995 79.9765 0.245289 79.6994 0.162422 79.3793C0.115344 79.1926 0.0962811 78.9999 0.105966 78.8076C0.105966 75.305 0.105966 71.8024 0.105966 68.3401C0.090763 66.8276 0.4634 65.3365 1.18835 64.0087C1.91331 62.681 2.96644 61.5609 4.24737 60.7552C5.51328 59.8934 6.98259 59.3771 8.50965 59.2575L9.06555 59.1931C8.22717 58.3129 7.58536 57.2649 7.18255 56.1184C6.77975 54.9719 6.62513 53.7529 6.72894 52.5422C6.80105 51.3359 7.13887 50.1605 7.71829 49.0998C8.29771 48.0392 9.10443 47.1195 10.0808 46.4066C11.7246 45.1339 13.7757 44.5023 15.8513 44.6297C17.9269 44.7571 19.8852 45.6348 21.3608 47.0991C22.9573 48.6896 23.8746 50.8369 23.9197 53.0893C23.9648 55.3417 23.1342 57.5239 21.6026 59.177C22.3519 59.3058 23.1011 59.4427 23.8505 59.5635C23.897 59.5637 23.9432 59.5545 23.9861 59.5365C24.029 59.5186 24.0678 59.4921 24.1003 59.4588C26.4288 57.4501 29.4392 56.4098 32.5119 56.5521C32.5843 56.5582 32.6571 56.5582 32.7295 56.5521C31.4191 55.3922 30.4189 53.924 29.8196 52.2804C29.2202 50.6368 29.0407 48.8698 29.2971 47.1393C29.6267 44.531 30.9481 42.1494 32.9874 40.4884C34.9717 38.8408 37.4886 37.972 40.0675 38.0446C42.6464 38.1172 45.1105 39.1263 46.9988 40.883C48.0899 41.879 48.9545 43.0974 49.5341 44.4559C50.1137 45.8144 50.3948 47.2814 50.3586 48.7578C50.3471 50.2253 50.027 51.6739 49.419 53.0098C48.811 54.3456 47.9288 55.5388 46.8295 56.5118L46.8699 56.5521ZM39.7634 40.6495C38.7212 40.6606 37.6914 40.8767 36.7328 41.2855C35.7742 41.6944 34.9055 42.2879 34.1764 43.0322C32.7039 44.5355 31.8892 46.5617 31.9117 48.6652C31.9341 50.7686 32.7918 52.7771 34.296 54.2486C35.8002 55.7201 37.8278 56.5342 39.9326 56.5118C42.0375 56.4894 44.0472 55.6323 45.5197 54.129C46.9921 52.6258 47.8068 50.5996 47.7844 48.4961C47.7619 46.3926 46.9043 44.3842 45.4001 42.9127C43.8958 41.4411 41.8682 40.627 39.7634 40.6495ZM15.3341 47.2682C14.1567 47.2618 13.0039 47.6049 12.0218 48.2539C11.0397 48.903 10.2726 49.8288 9.81756 50.9141C9.36256 51.9993 9.24016 53.1951 9.46595 54.3499C9.69173 55.5047 10.2555 56.5666 11.0858 57.4008C11.9161 58.2351 12.9756 58.8043 14.1299 59.0362C15.2842 59.2681 16.4814 59.1523 17.5698 58.7035C18.6583 58.2547 19.5888 57.4931 20.2436 56.5152C20.8984 55.5373 21.248 54.3872 21.248 53.2105C21.2374 51.6463 20.611 50.1491 19.5042 49.0431C18.3974 47.937 16.8993 47.3109 15.3341 47.3004V47.2682ZM70.2115 53.2266C70.2179 52.0494 69.8747 50.8968 69.2254 49.9145C68.5761 48.9323 67.6498 48.1646 66.5638 47.7086C65.4778 47.2526 64.2808 47.1288 63.1244 47.3528C61.9679 47.5768 60.9039 48.1385 60.067 48.967C59.2302 49.7954 58.658 50.8534 58.4229 52.0069C58.1878 53.1604 58.3004 54.3577 58.7463 55.4473C59.1923 56.5369 59.9517 57.4698 60.9283 58.1279C61.905 58.7861 63.0551 59.14 64.233 59.1448C65.8053 59.1513 67.3163 58.536 68.4363 57.4333C69.5563 56.3306 70.1945 54.83 70.2115 53.2588V53.2266Z" fill="#1F9ED3"/>
<path d="M6.68079 34.0066V30.7858C6.67365 29.927 6.94658 29.0891 7.45829 28.3991C7.96999 27.709 8.69264 27.2043 9.51694 26.9611C10.6369 26.623 11.7648 26.317 12.8848 26.011C12.9894 25.991 13.0867 25.943 13.1662 25.8721C13.2456 25.8012 13.3044 25.7101 13.336 25.6084C13.9162 24.1671 14.5123 22.7419 15.0844 21.3087C15.1204 21.2275 15.139 21.1398 15.139 21.051C15.139 20.9623 15.1204 20.8745 15.0844 20.7934C14.5768 19.8352 14.045 18.8931 13.5213 17.943C13.0182 17.1526 12.811 16.2099 12.9363 15.2816C13.0617 14.3532 13.5115 13.4991 14.2062 12.8702C15.6484 11.4209 17.0906 9.96348 18.5409 8.52219C19.1763 7.81439 20.0417 7.35415 20.9841 7.22299C21.9264 7.09182 22.8848 7.2982 23.6895 7.80556C24.608 8.32089 25.5346 8.82816 26.4531 9.35154C26.5509 9.40887 26.662 9.43911 26.7754 9.43911C26.8887 9.43911 26.9999 9.40887 27.0977 9.35154C28.4916 8.75569 29.9015 8.17595 31.3116 7.61232C31.4142 7.58447 31.5074 7.52933 31.5811 7.45277C31.6549 7.3762 31.7066 7.28107 31.7305 7.17751C32.0287 6.0744 32.351 4.98738 32.6652 3.89232C32.8905 3.04188 33.3949 2.29162 34.0975 1.76168C34.8002 1.23174 35.6605 0.952772 36.5407 0.969461H42.93C43.8428 0.923302 44.7433 1.19505 45.478 1.73835C46.2127 2.28165 46.736 3.06285 46.9586 3.94868C47.2729 5.01154 47.579 6.08245 47.8691 7.16946C47.8933 7.27905 47.9463 7.38017 48.0228 7.4623C48.0993 7.54443 48.1966 7.60457 48.3042 7.63647C49.7062 8.19206 51.1 8.7718 52.4858 9.35959C52.5894 9.42128 52.7078 9.45385 52.8283 9.45385C52.9489 9.45385 53.0671 9.42128 53.1707 9.35959C54.0811 8.83621 55.0078 8.32089 55.9343 7.81362C56.7409 7.31129 57.6993 7.11012 58.64 7.24568C59.5806 7.38123 60.4431 7.84479 61.0748 8.55439L65.4418 12.9266C66.1021 13.542 66.533 14.3638 66.6633 15.2566C66.7937 16.1495 66.6157 17.06 66.1589 17.8383C65.619 18.8287 65.0711 19.803 64.5474 20.7853C64.4963 20.8704 64.4693 20.9678 64.4693 21.0671C64.4693 21.1664 64.4963 21.2638 64.5474 21.3489C65.1436 22.7607 65.7265 24.1779 66.2959 25.6004C66.3229 25.7034 66.3779 25.7969 66.4546 25.8708C66.5314 25.9446 66.627 25.9959 66.731 26.0191C67.7623 26.2928 68.7936 26.5988 69.8168 26.8887C70.7241 27.0948 71.532 27.6084 72.1034 28.3423C72.6747 29.0762 72.9743 29.9851 72.9511 30.9147C72.9511 33.0484 72.9511 35.1741 72.9511 37.3079C72.9594 38.2026 72.6693 39.0745 72.1265 39.7861C71.5837 40.4976 70.8193 41.0082 69.9539 41.2373C68.9225 41.5432 67.8751 41.8331 66.8277 42.123C66.6549 42.1837 66.4715 42.2084 66.2889 42.1954C66.1062 42.1824 65.9281 42.1321 65.7657 42.0475C65.6033 41.963 65.4601 41.846 65.3448 41.7039C65.2295 41.5617 65.1445 41.3974 65.0953 41.2211C65.0487 41.0508 65.0374 40.8726 65.0621 40.6977C65.0868 40.5228 65.1471 40.3548 65.2391 40.204C65.3312 40.0532 65.4531 39.9228 65.5974 39.8208C65.7418 39.7188 65.9054 39.6473 66.0783 39.6108C67.1096 39.2967 68.1409 39.0149 69.1642 38.717C69.509 38.6613 69.8195 38.476 70.0321 38.1992C70.2448 37.9223 70.3436 37.5746 70.3083 37.2274C70.3083 35.15 70.3083 33.0806 70.3083 31.0032C70.3497 30.6485 70.2507 30.2916 70.0324 30.0088C69.8142 29.7259 69.4939 29.5396 69.1401 29.4895C67.7865 29.0949 66.4248 28.6843 65.0631 28.3219C64.822 28.2646 64.601 28.1429 64.4236 27.9699C64.2462 27.7969 64.1192 27.5791 64.0559 27.3396C63.5177 25.4222 62.7579 23.5739 61.7919 21.8321C61.6499 21.6037 61.5746 21.3401 61.5746 21.0711C61.5746 20.8022 61.6499 20.5386 61.7919 20.3102C62.4848 19.0944 63.1616 17.8947 63.8384 16.6466C64.0341 16.3663 64.1171 16.0226 64.0708 15.684C64.0245 15.3453 63.8524 15.0364 63.5887 14.8188C62.133 13.3426 60.6666 11.8745 59.1895 10.4144C58.9626 10.1302 58.6339 9.94522 58.2731 9.89864C57.9123 9.85206 57.5475 9.9475 57.2557 10.1648C56.0472 10.8331 54.8386 11.4934 53.6219 12.1778C53.3888 12.3235 53.1194 12.4007 52.8444 12.4007C52.5695 12.4007 52.3 12.3235 52.0669 12.1778C50.3551 11.2125 48.5313 10.4608 46.6363 9.93933C46.3945 9.88248 46.1733 9.75987 45.9969 9.58507C45.8206 9.41026 45.6961 9.19009 45.6372 8.94894C45.2666 7.61231 44.8798 6.28374 44.5012 4.92296C44.4797 4.72945 44.4191 4.54234 44.3228 4.37304C44.2266 4.20374 44.0968 4.0558 43.9415 3.93825C43.7862 3.82071 43.6086 3.73603 43.4195 3.68937C43.2303 3.64271 43.0336 3.63505 42.8414 3.66686H36.7824C36.5935 3.63983 36.4011 3.65118 36.2167 3.70023C36.0323 3.74927 35.8597 3.835 35.7093 3.95228C35.5588 4.06956 35.4336 4.21598 35.3411 4.38277C35.2486 4.54956 35.1907 4.7333 35.171 4.92296C34.8165 6.19517 34.4378 7.45128 34.0994 8.72348C34.0338 9.02536 33.8827 9.30201 33.6641 9.52044C33.4455 9.73887 33.1687 9.88987 32.8666 9.95543C31.0377 10.4535 29.2803 11.1842 27.6375 12.1295C27.3958 12.2801 27.1167 12.3599 26.8318 12.3599C26.547 12.3599 26.2678 12.2801 26.0261 12.1295C24.8336 11.4531 23.609 10.7928 22.4246 10.1326C22.1309 9.91707 21.7647 9.82429 21.4037 9.87389C21.0428 9.92349 20.7154 10.1116 20.4908 10.3983L16.0755 14.6819C15.7843 14.9012 15.592 15.2269 15.5406 15.5876C15.4893 15.9483 15.5831 16.3146 15.8015 16.6063C16.4702 17.8141 17.139 19.0219 17.8238 20.2378C17.9641 20.4668 18.0384 20.7301 18.0384 20.9987C18.0384 21.2672 17.9641 21.5306 17.8238 21.7596C16.8397 23.5059 16.0739 25.3664 15.5437 27.2993C15.478 27.532 15.3503 27.7424 15.1744 27.9083C14.9984 28.0742 14.7808 28.1893 14.5446 28.2414L10.516 29.3928C10.3299 29.4163 10.1503 29.4771 9.98825 29.5716C9.82617 29.6661 9.68481 29.7923 9.5727 29.9427C9.4606 30.093 9.38007 30.2645 9.33587 30.4467C9.29166 30.629 9.28475 30.8182 9.31551 31.0032C9.31551 33.0269 9.31551 35.0453 9.31551 37.0583C9.28713 37.2442 9.29623 37.4339 9.34236 37.6162C9.38849 37.7985 9.47073 37.9697 9.58411 38.1198C9.6975 38.2699 9.83979 38.3958 10.0026 38.49C10.1654 38.5843 10.3455 38.645 10.5322 38.6687C11.5474 38.9586 12.5625 39.2404 13.5777 39.5463C13.9015 39.6269 14.1829 39.8269 14.3652 40.1062C14.5475 40.3855 14.6174 40.7234 14.5607 41.0521C14.5353 41.2269 14.4738 41.3946 14.38 41.5444C14.2862 41.6941 14.1622 41.8227 14.0159 41.922C13.8696 42.0212 13.7041 42.0889 13.5302 42.1207C13.3563 42.1526 13.1777 42.1478 13.0057 42.1069C11.6372 41.7952 10.2913 41.3917 8.97707 40.8991C8.27384 40.6155 7.67481 40.1228 7.26118 39.4876C6.84755 38.8524 6.63932 38.1056 6.66466 37.3482C6.65661 36.2531 6.68079 35.1419 6.68079 34.0066Z" fill="#1F9ED3"/>
<path d="M39.7635 16.7835C43.7302 16.8051 47.5692 18.1878 50.6376 20.7002C53.706 23.2125 55.8177 26.702 56.6191 30.5845C57.533 34.9959 56.6641 39.5894 54.202 43.363C54.1159 43.5159 54.0002 43.6502 53.8616 43.7579C53.7229 43.8656 53.5642 43.9447 53.3947 43.9904C53.2251 44.0361 53.0481 44.0476 52.8741 44.0242C52.7 44.0008 52.5324 43.943 52.381 43.8541C52.2277 43.7671 52.0938 43.6499 51.9873 43.5094C51.8809 43.369 51.8042 43.2083 51.762 43.0372C51.7198 42.8662 51.7129 42.6883 51.7417 42.5145C51.7706 42.3407 51.8346 42.1746 51.9299 42.0263C52.8269 40.627 53.4883 39.0902 53.8877 37.477C54.9915 32.4284 53.8877 27.9032 50.3587 24.1269C48.7972 22.3886 46.8259 21.0678 44.6237 20.2846C42.4216 19.5013 40.0584 19.2804 37.7492 19.6419C35.366 19.9637 33.1004 20.8726 31.1562 22.2869C29.2119 23.7012 27.6501 25.5764 26.6112 27.7438C25.5724 29.9112 25.0891 32.3027 25.205 34.7031C25.3208 37.1035 26.0321 39.4375 27.2748 41.4949L27.5971 42.0263C27.7788 42.3264 27.8337 42.6862 27.7499 43.0267C27.666 43.3673 27.4502 43.6605 27.15 43.842C26.8498 44.0236 26.4897 44.0785 26.149 43.9947C25.8082 43.9108 25.5148 43.6952 25.3331 43.3952C23.7797 40.994 22.8504 38.2434 22.6295 35.3926C22.4085 32.5418 22.903 29.681 24.068 27.0695C25.233 24.4579 27.0317 22.1782 29.3011 20.4369C31.5705 18.6956 34.2389 17.5478 37.0643 17.0975C37.9587 16.9204 38.861 16.872 39.7635 16.7835Z" fill="#1F9ED3"/>
<path d="M9.33157 75.0715C9.33157 76.3357 9.33157 77.5999 9.33157 78.864C9.34815 79.0493 9.32647 79.2359 9.26803 79.4125C9.2096 79.5891 9.11559 79.7518 8.99176 79.8907C8.86793 80.0295 8.71692 80.1415 8.54808 80.2197C8.37925 80.298 8.19622 80.3408 8.01018 80.3456C7.82452 80.3375 7.64232 80.2921 7.47454 80.2123C7.30677 80.1324 7.1568 80.0196 7.03352 79.8807C6.91024 79.7417 6.81618 79.5793 6.75695 79.4033C6.69773 79.2273 6.67457 79.0411 6.68879 78.8559V71.2308C6.67326 71.0452 6.69624 70.8585 6.75626 70.6822C6.81628 70.5059 6.91201 70.344 7.03756 70.2064C7.16311 70.0688 7.31573 69.9587 7.48585 69.8828C7.65598 69.8069 7.84001 69.7669 8.02631 69.7653C8.21291 69.7662 8.3972 69.8066 8.56706 69.8838C8.73693 69.961 8.88851 70.0732 9.01182 70.2132C9.13513 70.3532 9.22738 70.5176 9.28249 70.6958C9.3376 70.874 9.35433 71.0618 9.33157 71.2469C9.33157 72.5271 9.33157 73.8074 9.33157 75.0715Z" fill="#1F9ED3"/>
<path d="M26.5418 75.0715V71.2388C26.5212 71.0532 26.54 70.8652 26.597 70.6874C26.6541 70.5095 26.748 70.3456 26.8727 70.2065C26.9974 70.0673 27.1501 69.956 27.3207 69.8798C27.4914 69.8036 27.6762 69.7642 27.8632 69.7642C28.0501 69.7642 28.2348 69.8036 28.4055 69.8798C28.5761 69.956 28.7288 70.0673 28.8535 70.2065C28.9782 70.3456 29.0721 70.5095 29.1292 70.6874C29.1862 70.8652 29.205 71.0532 29.1844 71.2388C29.1844 73.794 29.1844 76.3464 29.1844 78.8962C29.205 79.0819 29.1862 79.2698 29.1292 79.4477C29.0721 79.6255 28.9782 79.7894 28.8535 79.9286C28.7288 80.0677 28.5761 80.179 28.4055 80.2552C28.2348 80.3314 28.0501 80.3708 27.8632 80.3708C27.6762 80.3708 27.4914 80.3314 27.3207 80.2552C27.1501 80.179 26.9974 80.0677 26.8727 79.9286C26.748 79.7894 26.6541 79.6255 26.597 79.4477C26.54 79.2698 26.5212 79.0819 26.5418 78.8962V75.0715Z" fill="#1F9ED3"/>
<path d="M50.3667 75.0715C50.3667 73.7993 50.3667 72.5191 50.3667 71.2469C50.3525 71.0653 50.376 70.8828 50.4358 70.7108C50.4955 70.5387 50.5902 70.3809 50.7139 70.2472C50.8376 70.1136 50.9877 70.0069 51.1546 69.9339C51.3216 69.861 51.5019 69.8233 51.6841 69.8233C51.8663 69.8233 52.0466 69.861 52.2135 69.9339C52.3805 70.0069 52.5305 70.1136 52.6542 70.2472C52.778 70.3809 52.8726 70.5387 52.9324 70.7108C52.9921 70.8828 53.0156 71.0653 53.0014 71.2469C53.0014 73.7993 53.0014 76.3598 53.0014 78.9123C53.0134 79.0978 52.9877 79.2837 52.9259 79.459C52.8641 79.6342 52.7674 79.7952 52.6416 79.9321C52.5159 80.069 52.3639 80.1791 52.1944 80.2557C52.025 80.3323 51.8418 80.3738 51.6558 80.3778C51.474 80.3686 51.2959 80.3232 51.132 80.244C50.9681 80.1649 50.8217 80.0538 50.7015 79.9172C50.5813 79.7805 50.4898 79.6212 50.4323 79.4486C50.3748 79.276 50.3525 79.0937 50.3667 78.9123C50.3667 77.6159 50.3667 76.3357 50.3667 75.0715Z" fill="#1F9ED3"/>
<path d="M70.2198 75.0715C70.2198 73.7671 70.2198 72.4627 70.2198 71.1583C70.2074 70.8943 70.2785 70.6332 70.4232 70.412C70.5678 70.1909 70.7786 70.0209 71.0255 69.9263C71.239 69.8261 71.4768 69.7887 71.7108 69.8186C71.9449 69.8486 72.1655 69.9446 72.3469 70.0954C72.5157 70.2257 72.6508 70.3947 72.7405 70.5881C72.8303 70.7815 72.8721 70.9936 72.8626 71.2066C72.8626 73.8074 72.8626 76.4001 72.8626 78.9928C72.8768 79.1744 72.8533 79.3569 72.7935 79.5289C72.7338 79.7009 72.639 79.8588 72.5153 79.9925C72.3916 80.1261 72.2416 80.2328 72.0746 80.3058C71.9077 80.3787 71.7274 80.4164 71.5452 80.4164C71.363 80.4164 71.1827 80.3787 71.0158 80.3058C70.8488 80.2328 70.6988 80.1261 70.575 79.9925C70.4513 79.8588 70.3566 79.7009 70.2969 79.5289C70.2371 79.3569 70.2136 79.1744 70.2278 78.9928C70.2117 77.6401 70.2198 76.3357 70.2198 75.0715Z" fill="#1F9ED3"/>
</svg>
