<svg width="79" height="76" viewBox="0 0 79 76" fill="none" xmlns="http://www.w3.org/2000/svg">
<path d="M62.6115 48.5149C62.5067 47.7097 62.4181 46.832 62.3053 45.9946C62.0499 44.2402 61.6757 42.505 61.1854 40.8011C59.6522 35.1084 57.0761 29.7491 53.5875 24.9952C52.2461 23.1198 50.7241 21.3803 49.0432 19.8017C48.3477 19.1692 47.6159 18.5777 46.8516 18.0302C46.7784 17.963 46.685 17.9217 46.5859 17.913C46.4869 17.9043 46.3876 17.9285 46.3038 17.9819C46.1023 18.0946 45.8848 18.1671 45.6753 18.2637C43.7158 19.1624 41.6127 19.7076 39.4632 19.8741C37.244 20.0285 35.0164 19.7355 32.9127 19.0126C32.1547 18.7692 31.4167 18.4677 30.7051 18.1107C30.5204 17.9963 30.3027 17.9469 30.0866 17.9702C29.8706 17.9936 29.6686 18.0884 29.5126 18.2396L29.3676 18.3604C27.49 19.8315 25.7917 21.5178 24.3076 23.3848C21.1955 27.2923 18.7011 31.6534 16.9112 36.3162C15.6849 39.4635 14.8095 42.7362 14.3007 46.0752C14.0405 47.7013 13.9486 49.3499 14.0267 50.9949C14.0334 51.3012 14.0712 51.6061 14.1395 51.9048L15.0499 51.6793C16.3353 51.3925 17.6487 51.2494 18.9657 51.2526C20.6577 51.2526 22.3417 51.2526 24.0256 51.2526C26.1066 51.2006 28.1794 51.5309 30.141 52.2269C31.1455 52.608 32.1274 53.0462 33.0819 53.5393C35.344 54.6459 37.816 55.258 40.3334 55.3349C41.2116 55.3349 42.0818 55.3349 42.96 55.2866C44.4264 55.2463 45.9009 55.2866 47.3673 55.343C47.8119 55.3467 48.2538 55.4117 48.6806 55.5362C49.5478 55.7874 50.3535 56.2154 51.0469 56.7933C51.7403 57.3712 52.3062 58.0864 52.7092 58.8939L52.9106 59.2884C53.0556 59.2401 53.1201 59.1193 53.2087 59.0307L60.138 51.5183L62.3295 49.1027C62.4197 49.034 62.4922 48.9449 62.5413 48.8427C62.5903 48.7405 62.6143 48.6282 62.6115 48.5149ZM58.9616 48.3056C57.1084 50.2863 55.2795 52.2832 53.4424 54.2801C53.3538 54.3687 53.2733 54.4653 53.1846 54.5619C52.9107 54.3606 52.6448 54.1835 52.3789 53.9902C51.4644 53.308 50.4152 52.8277 49.301 52.5811C48.0503 52.3048 46.7704 52.1832 45.49 52.2188C43.9913 52.2188 42.5008 52.2188 41.0022 52.2591C38.6094 52.3354 36.2388 51.7799 34.1294 50.6487C32.9389 50.0023 31.6794 49.4919 30.3747 49.1268C29.0543 48.7451 27.7079 48.4598 26.3461 48.2733C25.5429 48.1948 24.736 48.1599 23.929 48.1687C22.4626 48.1687 20.9881 48.1687 19.5136 48.1687C18.8368 48.1687 18.1519 48.1687 17.4671 48.2331C17.0401 48.2733 17.0723 48.3056 17.1126 47.8627C17.1851 47.0575 17.3059 46.204 17.4429 45.3746C18.5261 39.65 20.6919 34.1844 23.8242 29.2707C25.3023 26.8312 27.0867 24.5907 29.1339 22.6037C29.4964 22.2495 29.8832 21.9193 30.2458 21.565C30.3094 21.4972 30.3938 21.4524 30.4857 21.4379C30.5777 21.4233 30.6718 21.4397 30.7534 21.4845C32.4965 22.1374 34.3072 22.5938 36.1517 22.8453C38.1545 23.1197 40.1911 23.0132 42.1543 22.5313C43.4428 22.2673 44.709 21.9039 45.9412 21.4443C46.0171 21.415 46.1004 21.411 46.1788 21.4327C46.2571 21.4545 46.3263 21.5009 46.3763 21.565C47.3503 22.4177 48.2631 23.3379 49.1076 24.3188C52.2822 28.0129 54.8101 32.216 56.5847 36.751C57.4697 38.933 58.1914 41.1776 58.744 43.4663C59.0341 44.6419 59.1549 45.8819 59.3483 47.0575C59.3953 47.2812 59.3845 47.5133 59.3168 47.7316C59.2491 47.95 59.1269 48.1475 58.9616 48.3056V48.3056Z" fill="#1F9ED3"/>
<path d="M51.9761 3.89905C51.8103 3.72075 51.5912 3.60088 51.3515 3.55733C51.1119 3.51379 50.8646 3.54893 50.6466 3.6575C49.3811 4.21174 47.9879 4.40943 46.618 4.22919C45.505 4.12307 44.4347 3.74718 43.4999 3.13412C43.0568 2.8362 42.6377 2.50607 42.2268 2.16789C41.8487 1.86016 41.4412 1.59045 41.0102 1.36269C39.7673 0.667234 38.3034 0.479664 36.9252 0.839317C36.1567 1.05895 35.4393 1.42838 34.8142 1.92633C34.2986 2.30477 33.807 2.73153 33.2592 3.08581C31.672 4.14176 29.7374 4.54285 27.8609 4.20503C27.1784 4.07013 26.5075 3.88167 25.8547 3.64139C25.6869 3.58421 25.5076 3.5692 25.3326 3.59768C25.1576 3.62617 24.9924 3.69727 24.8514 3.80471C24.7105 3.91214 24.5982 4.05261 24.5244 4.21371C24.4507 4.37481 24.4177 4.55157 24.4285 4.7284C24.4578 5.01906 24.5635 5.29683 24.7347 5.5336C26.5959 8.68191 28.4733 11.8222 30.3184 14.9705C30.6013 15.4784 31.0427 15.8799 31.5752 16.1139C33.7461 17.1557 36.1204 17.7056 38.5286 17.7243C38.9395 17.7243 39.5357 17.7242 40.14 17.6115C41.6853 17.4137 43.1909 16.9791 44.6037 16.3232C44.9982 16.0958 45.4287 15.9378 45.8767 15.8562C46.0056 15.8562 46.1023 15.7515 46.0782 15.6227C46.0699 15.4458 46.1305 15.2727 46.2473 15.1396L50.2115 8.52892C50.7997 7.55464 51.3798 6.58035 51.9599 5.59802C52.0332 5.48074 52.1004 5.3598 52.1614 5.23568C52.2764 5.02205 52.3204 4.77741 52.2871 4.53714C52.2538 4.29686 52.1448 4.07339 51.9761 3.89905V3.89905ZM47.1981 7.5949C46.0943 9.4388 44.9824 11.2827 43.8866 13.1346C43.8031 13.2599 43.6895 13.3624 43.5563 13.4326C41.8907 14.3104 40.0235 14.7353 38.1419 14.6645C37.33 14.6584 36.5206 14.5748 35.7247 14.4149C34.792 14.1741 33.8853 13.8424 33.0175 13.4245C32.9289 13.3754 32.8583 13.2992 32.8161 13.2071C31.68 11.3069 30.552 9.39854 29.424 7.49828C29.424 7.49828 29.424 7.42581 29.3756 7.36139C30.5717 7.24511 31.752 7.00219 32.8966 6.63672C33.5283 6.44117 34.1242 6.14479 34.6612 5.75906C35.2413 5.35646 35.8213 4.95386 36.3773 4.50295C36.619 4.31775 36.8769 4.16477 37.1347 3.99568C37.6179 3.70406 38.1937 3.60624 38.7461 3.72191C39.2467 3.8243 39.7111 4.05771 40.0917 4.39828C40.6718 4.87334 41.2761 5.30815 41.8885 5.74295C42.6169 6.257 43.4375 6.62606 44.3056 6.82996C45.2584 7.08547 46.2316 7.25789 47.2143 7.34529C47.319 7.45801 47.2384 7.52243 47.1981 7.5949Z" fill="#1F9ED3"/>
<path d="M53.2973 36.1632C53.2328 35.5996 53.0475 35.0762 52.9428 34.5528C52.6695 33.3733 52.0626 32.2972 51.1943 31.4528C49.9674 30.219 48.3374 29.4674 46.6018 29.3352C45.9435 29.2983 45.2842 29.3885 44.66 29.6009C44.3587 29.6976 44.0347 29.6976 43.7334 29.6009C43.6219 29.577 43.5066 29.577 43.395 29.6009C42.9764 29.5767 42.5567 29.5767 42.1381 29.6009C41.9186 29.6412 41.692 29.6088 41.4928 29.5085C41.2935 29.4082 41.1325 29.2455 41.0342 29.0453C40.3949 28.104 39.4677 27.395 38.3915 27.0243C37.5564 26.7254 36.6923 26.5149 35.8132 26.3962C34.6337 26.2312 33.4399 26.1907 32.2519 26.2754C31.2528 26.2754 30.2537 26.364 29.2466 26.3399C28.3815 26.2863 27.5253 26.5402 26.8294 27.0565C26.4913 27.308 26.2292 27.6479 26.0721 28.0388C25.8597 28.567 25.7424 29.1285 25.7256 29.6975V35.5915C25.7256 37.363 25.7256 39.1425 25.7256 40.9139C25.7242 41.5461 25.7999 42.1761 25.9512 42.79C26.0465 43.179 26.2307 43.5406 26.4893 43.8466C26.7479 44.1525 27.0739 44.3945 27.4418 44.5534C27.9477 44.7843 28.497 44.905 29.0532 44.9077H31.6396C31.8047 44.9079 31.9693 44.8917 32.1311 44.8593C32.8229 44.7827 33.4763 44.5025 34.0084 44.0541C34.1132 43.9575 34.1695 43.9817 34.2662 44.0541C34.5058 44.2696 34.7776 44.4462 35.0719 44.5775C35.5868 44.7793 36.131 44.8963 36.6834 44.9237H38.0128C38.1659 44.9237 38.2385 44.964 38.2626 45.125C38.2868 45.2861 38.3673 45.5196 38.3995 45.7209C38.4705 46.224 38.6893 46.6947 39.028 47.0736C39.3163 47.4277 39.699 47.6929 40.1318 47.8386C40.8938 48.0816 41.6941 48.1826 42.4926 48.1365C42.7505 48.1365 43.0002 48.1365 43.2984 48.1365C43.7909 48.1586 44.2837 48.0988 44.7567 47.9593C45.2905 47.8899 45.7881 47.6515 46.1766 47.2792C46.5651 46.9069 46.8242 46.4201 46.916 45.89C46.9451 45.7952 46.9667 45.6983 46.9805 45.6001C46.9742 45.5094 46.9878 45.4183 47.0203 45.3333C47.0527 45.2483 47.1033 45.1714 47.1684 45.1078C47.2335 45.0443 47.3117 44.9956 47.3975 44.9652C47.4833 44.9348 47.5746 44.9234 47.6653 44.9318C47.7556 44.9179 47.8446 44.8964 47.9312 44.8674C48.4533 44.7682 48.96 44.6003 49.4379 44.3682C50.7792 43.6071 51.8686 42.4708 52.5722 41.0991C52.7112 40.8444 52.8193 40.5741 52.8944 40.2939C53.0072 39.8913 53.0878 39.4887 53.2006 39.078C53.4206 38.1218 53.4534 37.132 53.2973 36.1632V36.1632ZM38.4883 41.7996C37.8678 41.7996 37.2474 41.7996 36.627 41.7996C36.5357 41.8067 36.4446 41.7848 36.3665 41.7371C36.2883 41.6894 36.2272 41.6183 36.1919 41.5339C35.4828 40.2375 34.7497 38.9492 34.0407 37.6448C33.997 37.537 33.9186 37.4468 33.8179 37.3885C33.7172 37.3302 33.6 37.3071 33.4847 37.3227C33.0657 37.3227 32.679 37.3227 32.2278 37.3227C31.7766 37.3227 31.8732 37.3227 31.8732 37.6609V41.3487C31.8732 41.8238 31.9377 41.7835 31.4542 41.7835H29.1741C28.6987 41.7835 28.7712 41.8479 28.7632 41.3889V29.778C28.7325 29.6347 28.7325 29.4865 28.7632 29.3432C30.1225 29.3917 31.4834 29.3675 32.8402 29.2708C34.031 29.2099 35.2248 29.2992 36.3933 29.5365L36.8607 29.6734C37.6361 29.9116 38.3091 30.4029 38.7721 31.0685C39.2351 31.7341 39.4614 32.5357 39.4147 33.345C39.4158 34.1892 39.1319 35.0091 38.609 35.6721C38.2134 36.2109 37.6445 36.5975 36.9976 36.7671C36.9656 36.771 36.9349 36.7826 36.9083 36.8008C36.8816 36.819 36.8598 36.8434 36.8446 36.8718L39.6888 41.7996H38.4883ZM50.1631 38.5788C49.9484 39.5025 49.4663 40.3426 48.7772 40.9944C48.2593 41.5126 47.5904 41.8533 46.8666 41.9676C46.1427 42.0819 45.4011 41.9639 44.7486 41.6305C44.5149 41.5178 44.2893 41.3809 44.0557 41.2521C43.9429 41.3245 43.9913 41.4373 43.9913 41.5258C43.9913 42.5726 43.9913 43.6274 43.9913 44.6741C43.9913 44.9962 43.9912 44.9962 43.6609 45.0043C42.9519 45.0043 42.2428 45.0043 41.5338 45.0043C41.3324 45.0043 41.2599 44.9479 41.276 44.7466C41.2921 44.5453 41.276 44.2152 41.276 43.9414V33.0471C41.276 32.5962 41.2116 32.6284 41.7111 32.6284C42.2107 32.6284 42.8472 32.6284 43.4192 32.6284C43.6126 32.6284 43.7012 32.6687 43.6851 32.878C43.669 33.0874 43.6851 33.2243 43.6851 33.49C44.1141 33.0486 44.6414 32.7148 45.224 32.5157C45.9446 32.3041 46.7117 32.3105 47.4287 32.5341C48.1456 32.7576 48.7803 33.1883 49.2526 33.7718C49.9706 34.652 50.348 35.7608 50.3161 36.896C50.3379 37.4532 50.2865 38.0108 50.1631 38.5547V38.5788Z" fill="#1F9ED3"/>
<path d="M35.2895 31.7346C34.8738 31.6291 34.4452 31.583 34.0165 31.5978C33.3558 31.5978 32.7032 31.7105 32.0426 31.6622C31.9056 31.6622 31.8733 31.6622 31.8733 31.8313V33.3048C31.8733 33.8121 31.8733 34.3193 31.8733 34.8266C31.8733 34.9957 31.9216 35.044 32.0909 35.0279C32.5309 34.9998 32.9722 34.9998 33.4122 35.0279C33.917 35.08 34.4266 35.0637 34.927 34.9796C35.2253 34.9562 35.5099 34.8451 35.7451 34.6602C35.9803 34.4754 36.1554 34.2251 36.2484 33.9409C36.3661 33.594 36.3966 33.2234 36.337 32.8619C36.2966 32.5904 36.1749 32.3374 35.9879 32.1362C35.801 31.935 35.5575 31.795 35.2895 31.7346V31.7346Z" fill="#1F9ED3"/>
<path d="M46.9482 34.7783C46.6724 34.4753 46.2875 34.2942 45.8781 34.2745C45.4687 34.2549 45.0682 34.3984 44.7646 34.6736C44.4969 34.9099 44.2873 35.2047 44.1523 35.5352C43.7246 36.5621 43.7016 37.7127 44.0879 38.756C44.2012 39.0794 44.3888 39.3717 44.6357 39.6095C44.9323 39.8788 45.3187 40.028 45.7195 40.028C46.1202 40.028 46.5065 39.8788 46.8031 39.6095C47.0343 39.3792 47.2178 39.1055 47.343 38.8043C47.5866 38.2482 47.7127 37.6479 47.7136 37.0409C47.7201 36.7485 47.6903 36.4564 47.625 36.1713C47.5344 35.6528 47.2999 35.1701 46.9482 34.7783V34.7783Z" fill="#1F9ED3"/>
<path d="M77.0981 42.0895L77.0014 42.017C75.7703 41.1525 74.3341 40.6251 72.8358 40.4871C71.4451 40.3239 70.0355 40.4944 68.7239 40.9845C67.4123 41.4746 66.2366 42.2702 65.2943 43.3053C62.4421 46.3328 59.6543 49.4167 56.8343 52.4765C55.4565 53.9822 54.0707 55.4798 52.6446 57.0258C52.6043 56.8648 52.5801 56.744 52.5559 56.6313C52.376 55.7438 51.9722 54.917 51.3828 54.2294C50.7934 53.5417 50.0378 53.0159 49.188 52.7019C48.4904 52.4412 47.749 52.3182 47.0045 52.3396H40.9617C38.9961 52.3561 37.0476 51.9754 35.233 51.2204C34.1856 50.7775 33.1623 50.2702 32.1229 49.8113C30.7998 49.197 29.389 48.7922 27.9412 48.6115C26.926 48.4988 25.9028 48.4666 24.8876 48.4344C23.1876 48.378 21.4955 48.4344 19.8035 48.5069C18.6105 48.5522 17.4253 48.7195 16.2664 49.0061C13.7816 49.6549 11.4973 50.9112 9.6192 52.6617C7.20205 54.8357 4.90574 57.05 2.5611 59.2482C2.12602 59.6508 1.68287 60.0534 1.25584 60.4721C1.09595 60.6038 0.965854 60.7679 0.874033 60.9535C0.782211 61.1391 0.73077 61.3421 0.723157 61.549C0.715544 61.756 0.751938 61.9622 0.829872 62.154C0.907805 62.3459 1.02551 62.5191 1.17529 62.6622L1.3123 62.8071C4.97026 66.715 8.62822 70.6202 12.2862 74.5227C12.5432 74.816 12.8625 75.0484 13.2206 75.203C13.5788 75.3576 13.9669 75.4305 14.3568 75.4165H45.5703C46.6026 75.422 47.6332 75.3303 48.6482 75.1427C51.4798 74.624 54.1075 73.3179 56.23 71.3744C57.0827 70.5412 57.8744 69.6478 58.5988 68.7011L75.5189 47.5245C76.1957 46.671 76.8886 45.8336 77.5413 44.9721C77.7323 44.7665 77.8744 44.5205 77.9568 44.2524C78.0393 43.9842 78.0599 43.7009 78.0173 43.4237C77.9747 43.1464 77.8698 42.8824 77.7106 42.6513C77.5515 42.4203 77.3421 42.2282 77.0981 42.0895V42.0895ZM74.9952 44.1508L56.9471 66.7606C56.3041 67.6005 55.6184 68.4068 54.8925 69.1762C53.099 70.9659 50.8081 72.1751 48.3179 72.6466C47.434 72.8182 46.5353 72.9018 45.6349 72.8962C35.3056 72.8962 24.9816 72.8962 14.663 72.8962C14.511 72.9048 14.3591 72.878 14.2193 72.8179C14.0795 72.7578 13.9556 72.6661 13.8573 72.55C10.5538 69.0071 7.24238 65.467 3.92282 61.9295C3.82613 61.8409 3.74557 61.7362 3.63277 61.6154L6.53334 58.8939C8.14477 57.364 9.7562 55.8341 11.4563 54.3284C13.3535 52.5861 15.7367 51.4627 18.2887 51.1076C18.9655 51.011 19.6585 50.9788 20.3434 50.9466C22.269 50.858 24.1866 50.8902 26.1042 50.9466C28.1097 51.0071 30.077 51.5103 31.8651 52.4201C32.8883 52.9193 33.9277 53.3944 34.9913 53.7889C36.8641 54.4675 38.8406 54.8162 40.8327 54.8196C42.9115 54.8196 44.9902 54.8196 47.077 54.8196C47.4995 54.809 47.9204 54.8773 48.3179 55.0209C48.9419 55.2717 49.4622 55.7271 49.7931 56.3124C50.124 56.8977 50.2459 57.578 50.1388 58.2417C50.0264 58.882 49.7042 59.4668 49.2229 59.9041C48.7416 60.3413 48.1284 60.6063 47.4799 60.6573C47.2946 60.6573 47.1093 60.6573 46.9159 60.6573H30.9869C30.6803 60.6451 30.3736 60.6776 30.0764 60.7539C29.5736 60.9144 29.1403 61.2409 28.8476 61.6797C28.5548 62.1186 28.4198 62.6439 28.465 63.1695C28.5212 63.7218 28.7758 64.235 29.1818 64.6141C29.5877 64.9931 30.1174 65.2122 30.6726 65.2308C31.5589 65.2308 32.4533 65.2308 33.3396 65.2308H45.9813C46.5775 65.2308 47.1737 65.2308 47.7699 65.2308C49.4296 65.1275 51.0086 64.4784 52.2605 63.3846C53.5124 62.2908 54.3671 60.8137 54.6911 59.1837C54.6986 59.133 54.6986 59.0815 54.6911 59.0308C54.7031 58.7944 54.7636 58.563 54.8689 58.3511C54.9743 58.1391 55.1222 57.9511 55.3035 57.7988C59.2085 53.5796 63.1054 49.3523 66.9943 45.117C67.9555 44.0396 69.238 43.3 70.6523 43.0074C72.1586 42.697 73.7263 42.9401 75.0677 43.6918L75.1724 43.7562L75.2208 43.8126C75.1723 43.941 75.0951 44.0567 74.9952 44.1508V44.1508Z" fill="#1F9ED3"/>
</svg>
