<svg width="58" height="68" viewBox="0 0 58 68" fill="none" xmlns="http://www.w3.org/2000/svg">
<path d="M46.6499 63.5884C46.5651 64.23 46.3334 64.8435 45.9729 65.3811C45.6124 65.9187 45.1327 66.3661 44.5712 66.6884C43.9327 67.0577 43.2059 67.2469 42.4683 67.2359H5.01043C4.45062 67.2492 3.89395 67.1487 3.37421 66.9404C2.85446 66.7322 2.3825 66.4206 1.98692 66.0245C1.59134 65.6284 1.28041 65.1562 1.07301 64.6364C0.865618 64.1165 0.766062 63.56 0.78041 63.0006V4.61596C0.777227 4.07283 0.88125 3.53441 1.08654 3.03152C1.29182 2.52863 1.59437 2.07113 1.97679 1.68521C2.35922 1.2993 2.81405 0.992535 3.31524 0.782495C3.81644 0.572454 4.35414 0.463255 4.89762 0.461147C7.31477 0.461147 9.69163 0.461147 12.0927 0.461147C22.1964 0.461147 32.3001 0.461147 42.4038 0.461147C43.3783 0.429331 44.3329 0.742182 45.0993 1.34461C45.8657 1.94703 46.3949 2.80039 46.5935 3.75439C46.6673 4.10934 46.7051 4.47083 46.7063 4.83335V28.0793L44.6195 28.2162V4.86556C44.6678 4.38646 44.5512 3.90523 44.289 3.50124C44.0268 3.09724 43.6347 2.7946 43.1773 2.64322C42.9175 2.55769 42.645 2.51685 42.3716 2.52244H5.0749C4.7812 2.50244 4.4866 2.54526 4.21076 2.64802C3.93493 2.75079 3.68419 2.91114 3.47527 3.1184C3.26635 3.32566 3.10403 3.57506 2.99918 3.84995C2.89433 4.12485 2.84938 4.41893 2.86724 4.71257C2.86724 24.0695 2.86724 43.429 2.86724 62.7913C2.83102 63.2611 2.94906 63.7299 3.20351 64.1266C3.45797 64.5232 3.83495 64.8262 4.27725 64.9895C4.53816 65.0702 4.80982 65.1109 5.08297 65.1102H42.4683C42.8979 65.1278 43.3222 65.0097 43.6809 64.7727C44.0396 64.5356 44.3144 64.1917 44.4664 63.7897C44.4664 63.6931 44.6276 63.5723 44.7082 63.5723C45.3286 63.5804 45.9731 63.5884 46.6499 63.5884Z" fill="#1F9ED3"/>
<path d="M52.3866 52.1466C53.0549 52.1101 53.7246 52.1101 54.3929 52.1466C55.1146 52.2393 55.7802 52.5846 56.2713 53.1212C56.7625 53.6577 57.0476 54.3508 57.0759 55.0775C57.0759 55.8263 57.0759 56.5752 57.0759 57.324C57.0781 57.4558 57.0541 57.5867 57.0053 57.7092C56.9566 57.8316 56.884 57.9433 56.7919 58.0376C56.6998 58.1319 56.5898 58.2071 56.4685 58.2587C56.3472 58.3104 56.2168 58.3375 56.0849 58.3385H55.8109C49.3652 58.3385 42.9195 58.3385 36.4737 58.3385C36.1464 58.3457 35.8251 58.2499 35.5552 58.0648C35.3478 57.8467 35.2274 57.5603 35.2168 57.2596C35.1685 56.6235 35.2168 55.9713 35.2168 55.3352C35.2092 54.9101 35.2873 54.4879 35.4466 54.0936C35.6058 53.6994 35.8429 53.3413 36.1437 53.0407C36.4445 52.7401 36.8029 52.5031 37.1974 52.344C37.5918 52.1848 38.0143 52.1067 38.4397 52.1144H39.9141C39.9141 51.3978 39.9141 50.7214 39.9141 50.045C39.908 49.5904 40.0524 49.1465 40.3249 48.7824C40.5974 48.4184 40.9827 48.1545 41.4208 48.032C41.7776 47.9646 42.1382 47.9189 42.5005 47.8952C42.6567 45.9918 42.4349 44.0763 41.8478 42.2588C41.5 41.2656 41.091 40.2948 40.6232 39.352C40.1773 38.4905 39.9382 37.537 39.9249 36.5671C39.9116 35.5971 40.1245 34.6375 40.5467 33.764C40.9688 32.8906 41.5887 32.1273 42.3571 31.5348C43.1256 30.9422 44.0215 30.5365 44.974 30.35C46.1065 30.0727 47.2961 30.1399 48.39 30.5431C49.484 30.9462 50.4324 31.6669 51.1136 32.6126C51.8806 33.5395 52.3463 34.6784 52.4486 35.8769C52.5508 37.0754 52.2846 38.2765 51.6857 39.3198C50.8815 40.7426 50.3359 42.2965 50.0742 43.9095C49.905 45.2139 49.8647 46.5424 49.76 47.8952C50.1145 47.8952 50.3723 47.8952 50.6221 47.9676C51.1002 48.019 51.5442 48.2396 51.8737 48.5896C52.2033 48.9396 52.3967 49.3959 52.4189 49.8759C52.4592 50.4637 52.4189 51.0596 52.4189 51.6474L52.3866 52.1466ZM47.7054 47.9113C47.7076 47.8737 47.7076 47.8361 47.7054 47.7985C47.7054 47.5409 47.7054 47.2832 47.7054 46.9933C47.5893 43.9695 48.3234 40.9736 49.8245 38.3456C50.2319 37.613 50.4005 36.7716 50.3066 35.9388C50.2127 35.106 49.8611 34.3232 49.3007 33.6996C48.7609 33.0803 48.0499 32.6344 47.257 32.418C46.4642 32.2017 45.625 32.2245 44.8451 32.4837C44.2606 32.665 43.724 32.9744 43.2745 33.3894C42.825 33.8044 42.4739 34.3145 42.2469 34.8824C42.0198 35.4504 41.9226 36.0618 41.9623 36.6721C42.002 37.2824 42.1776 37.8762 42.4763 38.41C43.964 41.2062 44.6919 44.3435 44.5873 47.5087V47.8791L47.7054 47.9113ZM55.0616 56.2611V55.5687C55.0616 54.5541 54.691 54.1918 53.6919 54.1918H38.6492C38.4683 54.185 38.2872 54.1985 38.1093 54.232C37.9219 54.2554 37.747 54.3385 37.6105 54.469C37.4741 54.5996 37.3834 54.7706 37.352 54.9567C37.2965 55.3893 37.2696 55.825 37.2714 56.2611H55.0616ZM50.3401 50.045H42.0251V52.0741H50.3401V50.045Z" fill="#1F9ED3"/>
<path d="M23.7353 11.9432H41.0663C41.211 11.9305 41.3568 11.948 41.4944 11.9946C41.632 12.0413 41.7584 12.116 41.8655 12.214C41.9727 12.3121 42.0582 12.4314 42.1168 12.5643C42.1753 12.6972 42.2055 12.8408 42.2055 12.986C42.2055 13.1312 42.1753 13.2748 42.1168 13.4077C42.0582 13.5405 41.9727 13.6598 41.8655 13.7579C41.7584 13.8559 41.632 13.9307 41.4944 13.9773C41.3568 14.0239 41.211 14.0414 41.0663 14.0287H6.63799C6.45825 14.0409 6.27786 14.0409 6.09812 14.0287C5.85477 13.9911 5.63292 13.8678 5.47264 13.681C5.31236 13.4942 5.22424 13.2562 5.22424 13.0101C5.22424 12.764 5.31236 12.5261 5.47264 12.3393C5.63292 12.1524 5.85477 12.0291 6.09812 11.9915C6.29131 11.9795 6.48508 11.9795 6.67826 11.9915L23.7353 11.9432Z" fill="#1F9ED3"/>
<path d="M23.7031 18.1754H6.50908C5.76782 18.1754 5.38111 17.9258 5.23608 17.3702C5.20428 17.2358 5.20003 17.0962 5.22369 16.9601C5.24734 16.824 5.29837 16.694 5.37368 16.5781C5.44898 16.4622 5.54703 16.3628 5.66185 16.2858C5.77668 16.2088 5.90593 16.1559 6.0418 16.1302C6.23484 16.1142 6.42885 16.1142 6.62189 16.1302H40.8568C41.0125 16.1222 41.1685 16.1222 41.3242 16.1302C41.5809 16.153 41.8198 16.271 41.9939 16.461C42.1679 16.651 42.2644 16.8993 42.2644 17.1569C42.2644 17.4145 42.1679 17.6627 41.9939 17.8527C41.8198 18.0427 41.5809 18.1607 41.3242 18.1835C41.1444 18.1956 40.9641 18.1956 40.7844 18.1835L23.7031 18.1754Z" fill="#1F9ED3"/>
<path d="M23.7434 24.464H40.7924C40.9721 24.4519 41.1525 24.4519 41.3323 24.464C41.5923 24.4846 41.8341 24.6052 42.007 24.8005C42.1798 24.9957 42.2701 25.2503 42.2588 25.5108C42.254 25.764 42.156 26.0066 41.9837 26.1922C41.8113 26.3778 41.5765 26.4936 41.3242 26.5173H40.9777H6.46882C5.75979 26.5173 5.37307 26.2515 5.2361 25.7121C5.20434 25.5781 5.20017 25.439 5.22391 25.3034C5.24764 25.1678 5.29876 25.0384 5.37414 24.9231C5.44952 24.8079 5.54759 24.7092 5.66237 24.633C5.77715 24.5568 5.90628 24.5048 6.04182 24.4801C6.2483 24.4638 6.45571 24.4638 6.66219 24.4801L23.7434 24.464Z" fill="#1F9ED3"/>
<path d="M30.6484 54.0066C30.6484 55.1097 30.7129 56.1484 30.6484 57.163C30.5778 57.8808 30.255 58.5505 29.7373 59.0531C29.2196 59.5557 28.5404 59.8588 27.8203 59.9087H27.7075C24.7667 59.9087 21.8338 59.9087 18.893 59.9087C18.1636 59.8638 17.4764 59.5514 16.9634 59.0313C16.4504 58.5111 16.1476 57.82 16.1133 57.0905C16.1133 54.4656 16.0649 51.8406 16.1133 49.2076C16.1688 48.4608 16.4992 47.761 17.0409 47.2434C17.5826 46.7259 18.297 46.4274 19.0461 46.4055C21.9305 46.4055 24.8231 46.4055 27.7075 46.4055C28.4333 46.4304 29.1258 46.7163 29.6574 47.2107C28.9967 47.6455 28.3763 48.0642 27.7478 48.4668C27.6672 48.5232 27.5222 48.4668 27.4094 48.4668H22.2287C21.3021 48.4668 20.3836 48.4668 19.457 48.4668C19.2861 48.4521 19.1141 48.4749 18.9529 48.5337C18.7918 48.5924 18.6454 48.6856 18.5241 48.8068C18.4029 48.928 18.3096 49.0743 18.2508 49.2353C18.192 49.3964 18.1692 49.5683 18.1839 49.7391C18.1839 52.0312 18.1839 54.3233 18.1839 56.6154C18.1839 57.477 18.5465 57.8474 19.4006 57.8554H27.3691C28.1749 57.8554 28.6583 57.4448 28.5697 56.6476C28.4813 56.2429 28.5418 55.8199 28.7401 55.4562C28.9384 55.0924 29.2612 54.8122 29.6493 54.6669C29.9983 54.4718 30.3322 54.2511 30.6484 54.0066V54.0066Z" fill="#1F9ED3"/>
<path d="M42.0493 29.0858C41.4289 29.6092 40.8488 30.1165 40.2445 30.5915C40.0936 30.6809 39.9203 30.7255 39.745 30.7204H6.71055C6.51717 30.7204 6.32382 30.7204 6.13045 30.7204C5.8737 30.6976 5.63479 30.5796 5.46076 30.3896C5.28673 30.1996 5.19019 29.9513 5.19019 29.6937C5.19019 29.4361 5.28673 29.1879 5.46076 28.9979C5.63479 28.8079 5.8737 28.6899 6.13045 28.6671C6.28612 28.6591 6.44206 28.6591 6.59773 28.6671H40.9858C41.429 28.643 41.8721 28.6913 42.0493 29.0858Z" fill="#1F9ED3"/>
<path d="M39.9787 43.217H39.4952H6.55746C5.7034 43.217 5.20386 42.8305 5.20386 42.1783C5.20386 41.5261 5.69533 41.1315 6.54939 41.1315H38.7781C38.9017 41.1096 39.0289 41.1358 39.1338 41.2047C39.2387 41.2736 39.3132 41.3799 39.3421 41.5019C39.5436 42.0736 39.7531 42.6211 39.9787 43.217Z" fill="#1F9ED3"/>
<path d="M37.7869 36.9848L38.1979 39.0461H37.7789H6.55731C5.70325 39.0461 5.21177 38.6676 5.20371 38.0074C5.19565 37.3471 5.69522 36.9606 6.54123 36.9606H37.7869V36.9848Z" fill="#1F9ED3"/>
<path d="M28.9323 22.3785H17.2172C17.0399 22.3785 16.8546 22.3785 16.6773 22.3785C16.4301 22.3474 16.2027 22.2271 16.0379 22.0403C15.8731 21.8535 15.7822 21.613 15.7822 21.364C15.7822 21.115 15.8731 20.8745 16.0379 20.6877C16.2027 20.5009 16.4301 20.3806 16.6773 20.3495C16.8302 20.3375 16.9837 20.3375 17.1366 20.3495H40.7602C41.5659 20.3495 41.9043 20.5991 42.0252 21.1546C42.053 21.2903 42.053 21.4302 42.0251 21.5658C41.9972 21.7015 41.942 21.83 41.8629 21.9437C41.7838 22.0574 41.6824 22.1539 41.5649 22.2272C41.4473 22.3006 41.3161 22.3493 41.1792 22.3705C41.002 22.3705 40.8166 22.3705 40.6393 22.3705L28.9323 22.3785Z" fill="#1F9ED3"/>
<path d="M38.5525 32.8058C38.3511 33.4741 38.1738 34.078 37.9724 34.6739C37.9724 34.7624 37.7952 34.843 37.6904 34.8913C37.6025 34.9075 37.5124 34.9075 37.4245 34.8913H17.2816C17.1153 34.9032 16.9483 34.9032 16.782 34.8913C16.5106 34.8913 16.2504 34.7835 16.0585 34.5918C15.8666 34.4 15.7588 34.1399 15.7588 33.8687C15.7588 33.5975 15.8666 33.3374 16.0585 33.1456C16.2504 32.9538 16.5106 32.8461 16.782 32.8461C16.9375 32.8338 17.0938 32.8338 17.2493 32.8461H38.6089L38.5525 32.8058Z" fill="#1F9ED3"/>
<path d="M46.1665 59.4175H54.4089C54.5468 59.4019 54.6864 59.4141 54.8195 59.4533C54.9526 59.4925 55.0764 59.5579 55.1838 59.6457C55.2912 59.7335 55.3799 59.8419 55.4447 59.9645C55.5095 60.0871 55.5491 60.2214 55.5611 60.3596C55.5873 60.5982 55.528 60.8383 55.3938 61.0373C55.2595 61.2363 55.0591 61.3814 54.8279 61.4466C54.6404 61.4893 54.4482 61.5082 54.2559 61.503H37.8434C37.701 61.5052 37.5597 61.4785 37.428 61.4244C37.2964 61.3703 37.1771 61.2899 37.0776 61.1881C36.978 61.0864 36.9003 60.9655 36.8491 60.8327C36.7979 60.6999 36.7743 60.5581 36.7798 60.4159C36.7838 60.277 36.8159 60.1403 36.8742 60.0141C36.9324 59.8879 37.0155 59.7747 37.1187 59.6814C37.2218 59.5882 37.3427 59.5167 37.4742 59.4713C37.6056 59.426 37.7449 59.4077 37.8837 59.4175H46.1503H46.1665Z" fill="#1F9ED3"/>
<path d="M13.0434 7.77232C15.1464 7.77232 17.2412 7.77232 19.3442 7.77232C19.5731 7.76495 19.8017 7.79487 20.021 7.86089C20.2302 7.94847 20.4047 8.10256 20.5175 8.29929C20.6302 8.49602 20.6749 8.72441 20.6446 8.94909C20.6144 9.17377 20.5108 9.38221 20.35 9.54211C20.1892 9.70202 19.9801 9.80447 19.7551 9.83361C19.6397 9.8416 19.524 9.8416 19.4086 9.83361H6.62189C5.92091 9.83361 5.5261 9.55985 5.39718 9.02842C5.36538 8.89394 5.36118 8.75442 5.38484 8.61828C5.40849 8.48213 5.45953 8.35219 5.53483 8.2363C5.61013 8.12041 5.70813 8.02097 5.82296 7.94399C5.93778 7.86701 6.06704 7.81409 6.2029 7.78842C6.38263 7.77618 6.56303 7.77618 6.74277 7.78842C8.83763 7.76426 10.9486 7.77232 13.0434 7.77232Z" fill="#1F9ED3"/>
<path d="M24.3234 53.3544L31.1881 48.7084C31.3216 48.5974 31.4807 48.5215 31.651 48.4878C31.8213 48.454 31.9974 48.4634 32.1631 48.5152C32.3061 48.5554 32.4379 48.6277 32.5487 48.7266C32.6594 48.8255 32.7461 48.9484 32.802 49.0859C32.858 49.2234 32.8818 49.3719 32.8716 49.5199C32.8614 49.668 32.8175 49.8118 32.7432 49.9403C32.6018 50.1687 32.4154 50.366 32.1953 50.5201C29.7781 52.1949 27.3046 53.8536 24.8552 55.5204C24.7438 55.6142 24.6141 55.6839 24.4744 55.7253C24.3347 55.7666 24.188 55.7785 24.0434 55.7604C23.8988 55.7422 23.7596 55.6943 23.6345 55.6198C23.5093 55.5452 23.401 55.4456 23.3163 55.3271C22.4139 54.2965 21.5195 53.2658 20.6333 52.2352C20.5381 52.1331 20.4646 52.0127 20.4174 51.8815C20.3701 51.7502 20.35 51.6107 20.3583 51.4714C20.3665 51.3321 20.4031 51.196 20.4656 51.0712C20.5281 50.9464 20.6153 50.8356 20.7219 50.7455C20.9336 50.5724 21.2048 50.489 21.4773 50.5131C21.7499 50.5371 22.0021 50.6668 22.1802 50.8744C22.8329 51.6071 23.4533 52.3559 24.0898 53.1048L24.3234 53.3544Z" fill="#1F9ED3"/>
</svg>
